<?xml version="1.0" encoding="UTF-8"?>
<svg id="Layer_1" data-name="Layer 1" xmlns="http://www.w3.org/2000/svg" viewBox="0 0 30.82 26.84">
  <defs>
    <style>
      .cls-1 {
        fill: #191814;
      }

      .cls-1, .cls-2, .cls-3 {
        stroke-width: 0px;
      }

      .cls-2 {
        fill: #747274;
      }

      .cls-3 {
        fill: #c1373c;
      }
    </style>
  </defs>
  <path class="cls-2" d="M21.45,5.95l1.08.5.2,1.18s.06.05.08.03l.81-.87,1.18.17s.07-.04.05-.07l-.58-1.04.53-1.07s-.01-.08-.05-.07l-1.17.23-.85-.83s-.08-.01-.08.03l-.14,1.18-1.06.55s-.03.07,0,.09Z"/>
  <path class="cls-2" d="M14.76,2.98l-.41.98s.02.07.05.06l1.03-.28.81.69s.07,0,.07-.03l.05-1.06.91-.56s.03-.07,0-.08l-.99-.38-.25-1.03s-.05-.05-.08-.02l-.67.83-1.06-.08s-.06.04-.04.07l.58.89Z"/>
  <path class="cls-2" d="M17.11,6.04l.39.58-.26.65s.01.04.03.04l.67-.19.54.45s.05,0,.05-.02l.03-.7.59-.37s.02-.04,0-.05l-.66-.24-.17-.68s-.04-.03-.05-.01l-.43.55-.7-.04s-.04.02-.03.04Z"/>
  <path class="cls-2" d="M5.76,7.9c1.7.1,3.19-.84,3.89-2.26.02-.04-.02-.09-.06-.08-.31.07-.63.11-.96.11-2.12,0-3.9-1.68-4.02-3.8-.04-.65.08-1.26.31-1.81.02-.04-.02-.09-.07-.07C3.12.52,1.88,2.17,1.98,4.09c.1,2.03,1.75,3.69,3.78,3.82Z"/>
  <path class="cls-1" d="M26.45,13.15v3.32c0,.18-.03.36-.09.52h-6.05v-.37c.11.05.24.04.33-.04l.67-.52.13-.1.15.11.65.51c.12.09.28.09.4,0l.58-.45.22-.17.24.19.56.43c.06.04.13.07.2.07s.14-.02.2-.07l.49-.38.32-.24.34.27.03.02.18.14h.01s.12.1.12.1c0,0,0-.02,0-.02v-.79l-.16-.12-.13-.1-.03-.02-.17-.13c-.12-.09-.28-.09-.4,0l-.8.62-.8-.62c-.12-.09-.28-.09-.39,0l-.8.62-.8-.62c-.12-.09-.28-.09-.4,0l-.8.62-.13-.1v-1.44c.11.05.24.04.33-.04l.67-.52.13-.1.15.11.65.51c.12.09.28.09.4,0l.58-.45.22-.17.25.19.55.43c.12.09.28.09.4,0l.49-.38.32-.24.34.27.03.02.08.06.04.03.2.16v-.82l-.22-.17-.1-.08-.17-.14c-.12-.09-.28-.09-.4,0l-.8.62-.8-.62c-.12-.09-.28-.09-.39,0l-.8.62-.8-.62c-.12-.09-.28-.09-.4,0l-.8.62-.13-.1v-2h4.56c.87,0,1.58.71,1.58,1.58Z"/>
  <path class="cls-3" d="M13.61,10.85v6.14H3.18v-2.18c0-.73-.46-1.34-1.11-1.58.79-1.42,2.3-2.38,4.04-2.38h7.5Z"/>
  <rect class="cls-3" x="14.31" y="10.44" width="5.29" height="6.55"/>
  <path class="cls-1" d="M2.47,24.28h25.88v2.56h2.47V8.75c0-.55-.45-1-1-1h-.47c-.55,0-1,.45-1,1v8.95H2.47v-2.88c0-.54-.44-.98-.98-.98h-.5c-.54,0-.98.44-.98.98v12.03h2.47v-2.56Z"/>
  <path class="cls-2" d="M26.12,13.44v.82l-.2-.16-.04-.03-.08-.06-.03-.02-.34-.27-.32.24-.49.38c-.12.09-.28.09-.4,0l-.55-.43-.25-.19-.22.17-.58.45c-.12.09-.28.09-.4,0l-.65-.51-.15-.11-.13.1-.67.52c-.1.08-.22.09-.33.04v-.8l.13.1.8-.62c.12-.09.28-.09.4,0l.8.62.8-.62c.12-.09.28-.09.39,0l.8.62.8-.62c.12-.09.28-.09.4,0l.17.14.1.08.22.17Z"/>
  <path class="cls-2" d="M26.12,15.68v.79s0,.02,0,.02l-.12-.09h-.01s-.18-.15-.18-.15l-.03-.02-.34-.27-.32.24-.49.38c-.06.04-.13.07-.2.07s-.14-.02-.2-.07l-.56-.43-.24-.19-.22.17-.58.45c-.12.09-.28.09-.4,0l-.65-.51-.15-.11-.13.1-.67.52c-.1.07-.22.09-.33.04v-.8l.13.1.8-.62c.12-.09.28-.09.4,0l.8.62.8-.62c.12-.09.28-.09.39,0l.8.62.8-.62c.12-.09.28-.09.4,0l.17.13.03.02.13.1.16.12Z"/>
</svg>