<?xml version="1.0" encoding="UTF-8"?>
<svg id="Layer_1" data-name="Layer 1" xmlns="http://www.w3.org/2000/svg" viewBox="0 0 33.03 26.18">
  <defs>
    <style>
      .cls-1 {
        fill: #181814;
      }

      .cls-1, .cls-2, .cls-3, .cls-4, .cls-5 {
        stroke-width: 0px;
      }

      .cls-2 {
        stroke: #c1373c;
      }

      .cls-2, .cls-3 {
        fill: none;
        stroke-linecap: round;
        stroke-linejoin: round;
      }

      .cls-3 {
        stroke: #181814;
      }

      .cls-4 {
        fill: #000;
      }

      .cls-5 {
        fill: #c1373c;
      }
    </style>
  </defs>
  <path class="cls-2" d="M12.88,8.81s.05.04.07.06c.12.08.25.15.39.2"/>
  <path class="cls-2" d="M12.43,8.32s0,0,0,0"/>
  <path class="cls-5" d="M4.47.73c-.13-.01-.25-.02-.37-.02-.59,0-1.04.17-1.15.67-.05.23-1.12,4.46-1.12,4.46l-.94,4.38c-.05.21-.12.48-.16.67-.1.54.07,1.11.51,1.5l.08.06,3.55,1.92c.14-.24.32-.46.54-.64l3.49-2.87c.22-.18.46-.32.73-.41.26-.09.54-.14.82-.14.73,0,1.42.32,1.89.89l.07.09c.4.49.58,1.08.55,1.67.27-.1.56-.16.85-.16.71,0,1.37.31,1.82.86l.07.09c.4.49.59,1.1.53,1.73-.01.12-.03.23-.06.34.64.04,1.24.34,1.65.84l.07.08c.39.48.58,1.08.52,1.69-.02.16-.05.32-.1.47.59.06,1.13.34,1.51.8l.06.08c.48.58.61,1.33.43,2l.99.81c.23.11.47.17.72.17.46,0,.92-.2,1.24-.58l.07-.08c.55-.67.47-1.66-.18-2.23l-6.13-5.05c-.16-.13-.19-.38-.05-.54.08-.09.19-.14.3-.14.09,0,.17.03.24.09l.89.73h0s5.66,4.66,5.66,4.66c.31.25.68.38,1.05.38.48,0,.95-.2,1.28-.6l.07-.08c.58-.71.48-1.75-.22-2.33l-5.66-4.67h.01s-1.24-1.03-1.24-1.03c-.16-.13-.19-.38-.05-.54.08-.09.18-.14.3-.14.09,0,.17.03.24.09l7.54,6.22c.28.18.6.26.92.26.5,0,1-.21,1.34-.63l.07-.09c.61-.74.5-1.84-.24-2.45l-8.18-6.75-.14-.11-3.54.18-1.45,1.5c-.49.68-1.28,1.09-2.13,1.09-.53,0-1.04-.16-1.47-.45-1.19-.81-1.5-2.44-.69-3.64l1.93-2.83c.22-.32.51-.59.83-.78L4.52.73h-.04Z"/>
  <path class="cls-5" d="M19.15,25.48c.44,0,.88-.19,1.18-.56l.06-.08c.54-.65.45-1.62-.21-2.15l-.22-.19c-.11.14-.23.28-.37.4l-2.07,1.69.65.54c.28.24.63.35.97.35Z"/>
  <path class="cls-2" d="M12.12,7.27c0-.37.11-.74.33-1.07l.22-.32"/>
  <path class="cls-4" d="M.78,12.91l.02.02.08.06.05.04.06.03,3.62,1.95c.06-.23.15-.45.27-.66l-3.55-1.92-.08-.06c-.44-.38-.62-.96-.51-1.5.04-.18.11-.46.16-.67l.94-4.38S2.9,1.61,2.95,1.37c.11-.49.56-.67,1.15-.67.12,0,.24,0,.37.02h.04s10.11,1.47,10.11,1.47c.36-.22.78-.34,1.21-.36l-.11-.09-.15-.13-.2-.03L4.62.03h-.03s-.03,0-.03,0h-.03c-.15-.02-.29-.02-.42-.02-1.36,0-1.74.76-1.84,1.22-.04.17-.68,2.75-1.11,4.44h0s0,.02,0,.02L.21,10.05l-.02.08c-.05.2-.11.43-.14.61-.16.8.13,1.63.74,2.16Z"/>
  <path class="cls-4" d="M29.47,13.99c.74.61.85,1.71.24,2.45l-.07.09c-.34.42-.84.63-1.34.63-.32,0-.64-.09-.92-.26l-7.54-6.22c-.07-.06-.16-.09-.24-.09-.11,0-.22.05-.3.14-.13.16-.11.4.05.54l1.24,1.02h-.01s5.66,4.68,5.66,4.68c.71.58.81,1.62.22,2.33l-.07.08c-.33.4-.8.6-1.28.6-.37,0-.74-.12-1.05-.38l-5.66-4.67h0s-.89-.73-.89-.73c-.07-.06-.16-.09-.24-.09-.11,0-.22.05-.3.14-.13.16-.11.4.05.54l6.13,5.05c.65.57.74,1.55.18,2.23l-.07.08c-.32.38-.78.58-1.24.58-.25,0-.49-.06-.72-.17l-.99-.81c-.07.27-.19.52-.36.75l.22.19c.65.54.74,1.5.21,2.15l-.06.08c-.3.37-.74.56-1.18.56-.34,0-.69-.11-.97-.35l-.65-.54-.42.34s-.09.07-.14.11l.77.63c.4.33.9.51,1.42.51.67,0,1.3-.3,1.73-.81l.06-.08c.12-.14.21-.29.29-.45.04-.08.07-.16.1-.24.04-.12.07-.24.09-.37.01-.08.02-.17.03-.25,0-.13,0-.25-.01-.38,0-.08-.02-.17-.04-.25.21.06.42.09.64.09.69,0,1.34-.31,1.78-.84l.07-.08c.47-.57.62-1.3.48-1.96.24.08.49.12.75.12.04,0,.09,0,.13,0,.09,0,.17-.01.26-.03.09-.01.17-.03.25-.06.08-.02.16-.05.24-.08.2-.08.39-.19.56-.32.07-.05.13-.11.2-.17.06-.06.12-.13.18-.19l.07-.08c.48-.58.64-1.33.48-2.02.26.09.53.14.81.14.09,0,.18,0,.27-.02.09,0,.18-.02.27-.04.09-.02.17-.04.26-.07.08-.03.17-.06.25-.1.04-.02.08-.04.12-.06.08-.04.15-.09.23-.14.04-.03.07-.05.11-.08.07-.06.14-.11.2-.18.06-.06.13-.13.18-.2l.07-.09c.42-.5.61-1.14.55-1.79-.06-.65-.38-1.24-.88-1.65l-7.72-6.37-1.04.05.14.11,8.18,6.75Z"/>
  <polygon class="cls-4" points="15.98 2.54 15.96 2.54 15.98 2.54 16.12 2.54 16.22 2.54 15.98 2.54"/>
  <path class="cls-1" d="M33.01,11.53l-1.14-4.76c-.4-1.52-1.07-3.99-1.14-4.21-.03-.07-.26-.18-.64-.18-.05,0-.1,0-.16,0h0s0,0,0,0h-.04s0,0,0,0h0s-4.94.25-4.94.25l-7.09-.08h-1.13s-.49-.02-.49-.02h-.1s-.14,0-.14,0h-.02c-.43,0-.85.15-1.18.41-.15.12-.28.26-.4.43l-1.29,1.89-.43.63-.22.32c-.22.33-.33.7-.33,1.07s.1.73.31,1.05c0,0,0,0,0,0,.12.18.27.35.46.49.02.02.05.04.07.06.12.08.25.15.39.2.04.02.09.03.13.05.18.06.37.08.55.08.61,0,1.21-.29,1.58-.84l1.68-1.74,3.37-.17.46-.02h.26s0-.01,0-.01c.22,0,.59-.03,1.04-.06l7.89,6.51c.25-.08.53-.17.87-.27.61-.18,1.52-.46,1.76-.61.06-.09.09-.25.05-.45Z"/>
  <path class="cls-3" d="M11.73,22.34s-.04-.03-.05-.04"/>
  <path class="cls-3" d="M12.48,22.63s-.02,0-.02,0"/>
  <path class="cls-3" d="M12.34,22.61s-.04,0-.06-.02"/>
  <path class="cls-3" d="M12.18,22.56s-.04-.01-.06-.02"/>
  <path class="cls-3" d="M11.59,22.22s-.03-.02-.04-.04"/>
  <path class="cls-3" d="M11.84,22.41s.03.02.04.02"/>
  <path class="cls-1" d="M12.67,22.64s.1,0,.14,0c-.05,0-.1,0-.14,0,0,0,0,0,0,0Z"/>
  <path class="cls-3" d="M12.96,22.61s-.06.01-.1.01"/>
  <path class="cls-3" d="M16.21,16.5s.02,0,.03,0"/>
  <path class="cls-3" d="M16.69,16.63s.04.02.06.03"/>
  <path class="cls-3" d="M16.59,16.59s0,0,0,0"/>
  <path class="cls-3" d="M17.53,18.92c.05-.09.09-.19.12-.29"/>
  <path class="cls-1" d="M17.65,18.63c.04-.14.06-.28.06-.42,0,0,0,0,0,0,0,.14-.02.28-.06.42Z"/>
  <path class="cls-3" d="M17.03,16.83s0,0,0,0"/>
  <path class="cls-3" d="M17.16,16.95s0,0,0,0"/>
  <path class="cls-3" d="M16.85,16.71s.03.02.05.03"/>
  <path class="cls-1" d="M13.5,22.41h0s-.04.02-.06.04c.02-.01.04-.02.06-.04Z"/>
  <path class="cls-3" d="M13.35,22.48s.02,0,.03-.01"/>
  <path class="cls-3" d="M13.1,22.58s-.06.02-.09.02"/>
  <path class="cls-3" d="M13.24,22.53s-.06.02-.08.03"/>
  <path class="cls-3" d="M14.65,24.34s-.02-.02-.04-.03"/>
  <path class="cls-3" d="M14.78,24.45s-.03-.02-.05-.04"/>
  <path class="cls-3" d="M15.33,24.7s-.02,0-.02,0"/>
  <path class="cls-3" d="M15.04,24.6s-.03-.01-.04-.02"/>
  <path class="cls-3" d="M15.21,24.67s-.04-.01-.06-.02"/>
  <path class="cls-3" d="M19.02,19.87s-.02-.01-.02-.02"/>
  <path class="cls-3" d="M18.86,19.77s.03.02.05.03"/>
  <path class="cls-3" d="M19.15,19.98s.01.01.02.02"/>
  <polygon class="cls-1" points="19.28 20.12 19.28 20.12 19.28 20.12 19.28 20.12"/>
  <path class="cls-3" d="M18.26,19.57s0,0,0,0"/>
  <path class="cls-1" d="M18.1,19.57s0,0,0,0c-.02,0-.04,0-.06,0,0,0,0,0,.01,0,.02,0,.03,0,.05,0Z"/>
  <path class="cls-3" d="M18.56,19.64s.04.01.06.02"/>
  <path class="cls-3" d="M18.47,19.61s-.04-.01-.06-.01"/>
  <path class="cls-3" d="M18.76,19.72s0,0,0,0"/>
  <path class="cls-3" d="M16.65,24.39s-.08.06-.12.09"/>
  <path class="cls-3" d="M16.36,24.58s-.05.03-.08.04"/>
  <path class="cls-3" d="M16.23,24.64s-.05.02-.08.03"/>
  <path class="cls-3" d="M16.02,24.7s0,0-.01,0"/>
  <path class="cls-1" d="M15.68,24.74h0s.06,0,.09,0c0,0,0,0,0,0-.03,0-.06,0-.09,0Z"/>
  <path class="cls-3" d="M15.52,24.73s-.03,0-.05,0"/>
  <path class="cls-3" d="M17.9,19.58s-.05,0-.08.01"/>
  <path class="cls-3" d="M17.69,19.62s.06-.01.08-.02"/>
  <path class="cls-3" d="M14.21,22.53c.03-.08.08-.16.12-.23"/>
  <path class="cls-3" d="M17.42,19.73s.04-.02.06-.03"/>
  <path class="cls-3" d="M17.13,19.92s.08-.06.12-.09"/>
  <path class="cls-3" d="M17.63,19.64s-.05.02-.08.03"/>
  <path class="cls-3" d="M14.14,22.72s0-.02,0-.02"/>
  <path class="cls-3" d="M5.88,16.98s-.03-.03-.05-.04"/>
  <path class="cls-3" d="M6.19,17.2s0,0,0,0"/>
  <path class="cls-3" d="M6.49,17.34s.02,0,.03.01"/>
  <path class="cls-3" d="M6.03,17.1s-.04-.03-.06-.04"/>
  <path class="cls-3" d="M6.35,17.28s-.05-.02-.07-.03"/>
  <path class="cls-3" d="M10.04,11.05s.03,0,.05-.01"/>
  <path class="cls-3" d="M11.22,11.17s0,0,0,0"/>
  <path class="cls-3" d="M10.86,11.04s.01,0,.02,0"/>
  <path class="cls-3" d="M11.35,11.24s.02.01.03.02"/>
  <path class="cls-3" d="M11.49,11.34s-.01,0-.02-.01"/>
  <path class="cls-3" d="M11.04,11.1s.01,0,.02,0"/>
  <path class="cls-1" d="M10.46,11s0,0,0,0c-.01,0-.03,0-.04,0,.01,0,.02,0,.03,0,0,0,0,0,0,0Z"/>
  <path class="cls-3" d="M9.84,11.11s.03-.01.05-.02"/>
  <path class="cls-3" d="M10.15,11.02s.07-.01.11-.02"/>
  <path class="cls-3" d="M9.53,11.26s.06-.04.09-.06"/>
  <path class="cls-3" d="M6.87,17.42s-.04,0-.06,0"/>
  <path class="cls-3" d="M5.24,15.73s0-.08,0-.13"/>
  <path class="cls-1" d="M5.31,16.1c-.04-.12-.06-.25-.07-.37,0,.13.03.25.07.37Z"/>
  <path class="cls-3" d="M5.44,16.42c-.05-.1-.1-.21-.13-.32"/>
  <path class="cls-1" d="M7.05,17.43c.05,0,.1,0,.16,0-.05,0-.1,0-.16,0,0,0,0,0,0,0Z"/>
  <path class="cls-1" d="M7.49,17.37s0,0,0,0c-.03,0-.05.01-.08.02.02,0,.05-.01.07-.02Z"/>
  <path class="cls-3" d="M8.5,20.2s-.04-.03-.06-.04"/>
  <path class="cls-3" d="M10.06,20.4s-.06.02-.09.03"/>
  <path class="cls-3" d="M8.65,20.3s-.04-.02-.06-.04"/>
  <path class="cls-3" d="M9.08,20.47s.03,0,.05.01"/>
  <path class="cls-1" d="M9.46,20.51s.1,0,.15,0c-.05,0-.1,0-.15,0h0Z"/>
  <path class="cls-3" d="M10.16,20.36s.02-.01.04-.02"/>
  <path class="cls-3" d="M8.78,20.36s.01,0,.02,0"/>
  <path class="cls-3" d="M9.74,20.49s-.05,0-.07.01"/>
  <path class="cls-3" d="M8.9,20.41s.04.02.06.02"/>
  <path class="cls-3" d="M12.97,13.72s.04-.02.06-.03"/>
  <path class="cls-3" d="M12.76,13.86s.08-.07.13-.1"/>
  <path class="cls-3" d="M13.53,13.51s0,0,0,0"/>
  <path class="cls-3" d="M14.93,13.91s.03.03.04.04"/>
  <path class="cls-3" d="M14.18,13.53s.02,0,.04,0"/>
  <path class="cls-3" d="M14.52,13.64s-.03-.01-.05-.02"/>
  <path class="cls-3" d="M14.63,13.7s.04.02.06.04"/>
  <path class="cls-3" d="M14.78,13.8s.04.03.06.04"/>
  <path class="cls-3" d="M14.38,13.58s0,0,0,0"/>
  <path class="cls-3" d="M13.99,13.49s.03,0,.05,0"/>
  <path class="cls-3" d="M10.52,20.14s-.08.07-.13.1"/>
  <path class="cls-3" d="M10.34,20.26s-.06.04-.09.05"/>
  <path class="cls-1" d="M13.44,22.44s.04-.02.06-.04c.07-.04.13-.08.19-.13l3.44-2.86c.09-.07.16-.15.23-.23.06-.08.12-.16.16-.25,0,0,0-.01,0-.02.05-.09.09-.19.12-.29.04-.14.06-.27.06-.41,0,0,0,0,0,0,0-.21-.03-.42-.11-.61-.06-.16-.14-.3-.26-.44l-.07-.08s-.08-.09-.12-.13c0,0,0,0,0,0-.01-.01-.03-.02-.04-.04-.03-.03-.06-.05-.09-.08,0,0,0,0,0,0-.02-.01-.04-.03-.05-.04-.03-.02-.06-.04-.09-.06-.01-.01-.03-.02-.05-.03,0,0,0,0-.01,0-.03-.02-.06-.03-.09-.05-.02-.01-.04-.02-.06-.03-.03-.01-.06-.02-.09-.04,0,0,0,0,0,0-.02,0-.04-.01-.06-.02-.03-.01-.06-.02-.1-.03-.02,0-.04-.01-.06-.02-.04,0-.07-.01-.11-.02,0,0-.02,0-.03,0,0,0-.02,0-.03,0-.05,0-.11,0-.16,0-.05,0-.1,0-.14,0,0,0-.02,0-.03,0-.3.03-.6.15-.85.36l-3.44,2.86c-.29.24-.48.56-.55.91-.02.11-.04.22-.04.33,0,.36.12.72.37,1.02l.07.08s.08.09.12.13c.01.01.03.03.04.04.03.03.06.05.09.08.02.01.04.03.05.04.03.02.06.04.08.06,0,0,.01,0,.02.01.01,0,.03.02.04.02.03.02.06.03.09.05.02,0,.04.02.06.03.03.01.06.02.09.04.02,0,.04.02.06.02.03.01.06.02.1.03.02,0,.04.01.06.02.04,0,.07.01.11.02,0,0,.02,0,.02,0,0,0,.02,0,.03,0,.05,0,.11,0,.16,0,.05,0,.1,0,.14,0,.02,0,.03,0,.05,0,.03,0,.07,0,.1-.01.02,0,.04,0,.06-.01.03,0,.06-.01.09-.02.02,0,.04-.01.06-.02.03,0,.06-.02.08-.03.02,0,.04-.01.06-.02.02,0,.04-.02.05-.03,0,0,.02,0,.03-.01.02,0,.04-.02.05-.03Z"/>
  <path class="cls-1" d="M19.14,22.36c.16-.13.29-.3.38-.47.05-.09.08-.18.11-.27.03-.09.05-.19.06-.29,0-.05,0-.1,0-.15,0-.34-.11-.69-.35-.97l-.06-.08h0s-.07-.08-.11-.12c0,0-.01-.01-.02-.02,0,0-.01-.01-.02-.02-.03-.02-.05-.05-.08-.07,0,0-.02-.01-.03-.02,0,0-.02-.01-.02-.02-.03-.02-.05-.04-.08-.06-.02-.01-.03-.02-.05-.03,0,0,0,0,0,0-.03-.02-.05-.03-.08-.04,0,0,0,0-.01,0-.02,0-.03-.02-.05-.02-.03-.01-.06-.02-.09-.03-.02,0-.04-.02-.06-.02-.03-.01-.06-.02-.09-.03,0,0,0,0,0,0-.02,0-.04-.01-.06-.01-.03,0-.07-.01-.1-.02-.02,0-.03,0-.05,0h0c-.05,0-.1,0-.16,0-.02,0-.03,0-.05,0,0,0,0,0-.01,0-.03,0-.05,0-.08,0-.01,0-.03,0-.04,0,0,0-.01,0-.02,0-.03,0-.05,0-.08.01-.02,0-.04,0-.05.01-.03,0-.06.01-.08.02-.02,0-.04.01-.05.02-.03,0-.05.02-.08.03-.02,0-.04.01-.05.02,0,0-.01,0-.02.01-.02,0-.04.02-.06.03-.02,0-.03.02-.05.02-.03.02-.06.03-.08.05-.01,0-.03.02-.04.03-.04.03-.08.06-.12.09l-2.49,2.03c-.12.1-.22.22-.31.34-.05.08-.09.15-.12.23,0,.01,0,.02-.01.03-.02.05-.03.09-.05.14,0,0,0,.02,0,.02-.04.13-.06.27-.06.41,0,.15.02.29.06.44.06.19.15.37.29.54l.06.08s.07.08.11.12c.01.01.02.02.04.03,0,0,0,0,0,0,.03.02.05.05.08.07.02.01.03.02.05.04.03.02.05.04.08.06.02.01.04.02.06.03.03.02.06.03.08.04.01,0,.03.01.04.02,0,0,.01,0,.02.01.03.01.06.02.09.03.02,0,.04.02.06.02.03.01.06.02.09.03,0,0,.01,0,.02,0,.01,0,.02,0,.04,0,.04,0,.07.01.11.02.02,0,.03,0,.05,0,.05,0,.1,0,.16,0,.03,0,.06,0,.09,0,0,0,0,0,0,0,.02,0,.03,0,.05,0,.01,0,.03,0,.04,0,.03,0,.06,0,.09-.01.02,0,.04,0,.05-.01,0,0,0,0,.01,0,.02,0,.05-.01.07-.02.02,0,.04-.01.05-.02.03,0,.05-.02.08-.03.02,0,.04-.01.05-.02.03-.01.05-.02.08-.04.02,0,.03-.02.05-.02.03-.02.06-.03.08-.05.01,0,.03-.02.04-.03.04-.03.08-.06.12-.09l2.49-2.03Z"/>
  <path class="cls-1" d="M7.36,17.4s.04,0,.06-.01c.02,0,.05-.01.08-.02.23-.06.46-.17.66-.34l3.49-2.87c.24-.2.41-.44.51-.71.22-.57.14-1.23-.28-1.73l-.07-.09s-.08-.1-.13-.14c-.01-.01-.03-.03-.05-.04-.03-.03-.06-.06-.09-.08-.01,0-.03-.02-.04-.03,0,0-.01,0-.02-.01-.03-.02-.06-.04-.09-.06,0,0-.02-.01-.03-.02-.01,0-.02-.01-.04-.02-.03-.02-.06-.03-.09-.05,0,0,0,0,0,0-.02-.01-.04-.02-.07-.03-.03-.01-.07-.03-.1-.04,0,0-.01,0-.02,0-.02,0-.03-.01-.05-.02-.04-.01-.07-.02-.1-.03,0,0-.01,0-.02,0-.02,0-.03,0-.05-.01-.04,0-.08-.01-.12-.02-.02,0-.04,0-.06,0-.06,0-.12,0-.18,0,0,0,0,0-.01,0-.01,0-.02,0-.03,0-.04,0-.08,0-.12,0-.02,0-.03,0-.05,0-.04,0-.07,0-.11.02-.02,0-.04,0-.06.01-.02,0-.03,0-.05.01-.02,0-.03,0-.05.01-.02,0-.04.01-.06.02-.02,0-.03.01-.05.02-.02,0-.03.01-.05.02-.02,0-.04.02-.06.02-.03.01-.06.03-.09.04-.02,0-.04.02-.06.03-.03.02-.06.04-.1.06-.02,0-.03.02-.05.03-.05.03-.09.06-.14.1l-3.48,2.87c-.42.34-.63.84-.63,1.34,0,.17.02.33.07.5.03.11.08.21.13.32s.12.2.2.29l.07.09s.08.1.13.14c.02.02.03.03.05.04.03.03.06.06.09.08.02.02.04.03.06.04.03.02.06.04.09.06.02.01.04.02.06.04,0,0,0,0,0,0,.03.02.06.03.09.05.02.01.05.02.07.03.03.01.07.03.1.04.01,0,.02,0,.04.01.01,0,.02,0,.03.01.03.01.07.02.1.03.02,0,.04.01.07.02.04,0,.08.01.12.02.02,0,.04,0,.06,0,.06,0,.12,0,.18,0,.05,0,.1,0,.16,0,.02,0,.03,0,.05,0,.04,0,.07,0,.11-.02Z"/>
  <path class="cls-1" d="M14.94,16.5c.71-.58.81-1.62.22-2.33l-.07-.08s-.08-.09-.12-.13c-.01-.01-.03-.03-.04-.04-.03-.03-.06-.05-.09-.08-.02-.01-.04-.03-.06-.04-.03-.02-.06-.04-.09-.06-.02-.01-.04-.02-.06-.04-.03-.02-.06-.03-.09-.05,0,0-.01,0-.02,0-.02,0-.03-.01-.05-.02-.03-.01-.06-.03-.09-.04,0,0,0,0,0,0-.02,0-.04-.01-.06-.02-.03-.01-.07-.02-.1-.03-.01,0-.02,0-.04,0,0,0-.02,0-.03,0-.04,0-.07-.01-.11-.02-.02,0-.03,0-.05,0,0,0,0,0,0,0-.06,0-.11,0-.17,0-.05,0-.1,0-.15,0-.02,0-.03,0-.05,0-.03,0-.06,0-.09.01,0,0,0,0,0,0-.02,0-.04,0-.06.01-.03,0-.06.01-.09.02-.02,0-.04.01-.06.02-.03,0-.06.02-.09.03-.02,0-.04.02-.06.02-.03.01-.06.03-.09.04-.02,0-.04.02-.05.03-.02.01-.04.02-.06.03-.01,0-.02.01-.03.02-.02,0-.03.02-.04.03-.04.03-.09.06-.13.1l-4.42,3.63c-.71.58-.81,1.63-.22,2.33l.07.08s.08.09.12.13c.01.01.03.03.04.04.03.03.06.05.09.08.02.01.04.03.06.04.03.02.06.04.09.06.02.01.04.02.06.04.03.02.06.03.09.05.02,0,.03.01.05.02,0,0,.01,0,.02,0,.03.01.06.03.09.04,0,0,0,0,0,0,.02,0,.04.01.06.02.03.01.07.02.1.03,0,0,.01,0,.02,0,.02,0,.03,0,.05.01.04,0,.08.01.11.02.02,0,.04,0,.05,0,.06,0,.11,0,.17,0,.05,0,.1,0,.15,0,.02,0,.03,0,.05,0,.02,0,.05,0,.07-.01,0,0,.02,0,.03,0,.02,0,.04,0,.06-.01.03,0,.06-.01.09-.02.02,0,.04-.01.06-.02.03,0,.06-.02.09-.03.02,0,.04-.01.06-.02.02,0,.03-.02.05-.02.01,0,.02-.01.04-.02.02,0,.04-.02.05-.03.03-.02.06-.04.09-.05.01,0,.03-.02.04-.03.04-.03.09-.06.13-.1l4.42-3.63Z"/>
</svg>