<?xml version="1.0" encoding="UTF-8"?>
<svg id="Layer_1" data-name="Layer 1" xmlns="http://www.w3.org/2000/svg" viewBox="0 0 33.34 28.63">
  <defs>
    <style>
      .cls-1 {
        fill: none;
      }

      .cls-1, .cls-2, .cls-3, .cls-4, .cls-5 {
        stroke-width: 0px;
      }

      .cls-2 {
        fill: #181814;
      }

      .cls-3 {
        fill: #747274;
      }

      .cls-4 {
        fill: #c1373c;
      }

      .cls-5 {
        fill: #fff;
      }
    </style>
  </defs>
  <polygon class="cls-1" points="31.94 24.15 27.67 24.15 29.81 22.02 31.94 24.15"/>
  <polygon class="cls-1" points="31.85 24.77 31.85 24.77 29.81 26.81 27.76 24.77 31.85 24.77"/>
  <polygon class="cls-3" points="5.47 13.27 4.56 13.98 3.65 13.27 2.74 13.98 1.83 13.27 .92 13.98 .59 13.72 .35 13.54 .35 14.28 .59 14.46 .92 14.72 1.83 14.02 2.74 14.72 3.65 14.02 4.56 14.72 5.47 14.02 6.39 14.72 6.44 14.68 6.44 13.93 6.39 13.98 5.47 13.27"/>
  <polygon class="cls-3" points="5.47 15.32 4.56 16.02 3.65 15.32 2.74 16.02 1.83 15.32 .92 16.02 .59 15.76 .35 15.58 .35 16.32 .59 16.51 .92 16.77 1.83 16.06 2.74 16.77 3.65 16.06 4.56 16.77 5.47 16.06 6.39 16.77 6.44 16.72 6.44 15.98 6.39 16.02 5.47 15.32"/>
  <polygon class="cls-3" points="5.47 18.6 4.56 19.31 3.65 18.6 2.74 19.31 1.83 18.6 .92 19.31 .59 19.04 .29 18.82 .29 19.56 .59 19.79 .92 20.05 1.83 19.34 2.74 20.05 3.65 19.34 4.56 20.05 5.47 19.34 6.39 20.05 6.86 19.68 6.63 19.12 6.39 19.31 5.47 18.6"/>
  <path class="cls-3" d="M7.29,20.65l-.91.71-.91-.71-.91.71-.91-.71-.91.71-.91-.71-.91.71-.34-.26-.29-.23v.74l.29.23.34.26.91-.71.91.71.91-.71.91.71.91-.71.91.71.91-.71.91.71.75-.58c.12.04.24.08.37.12-.22-.07-.69-.25-.97-.4l-.15.12-.91-.71Z"/>
  <path class="cls-3" d="M7.91,20.93c.08.07.17.13.26.19-.05-.04-.15-.11-.26-.19Z"/>
  <path class="cls-3" d="M9.48,21.67l.54.42.42-.32s-.69-.04-1.03-.12c.02,0,.04.01.07.02h0Z"/>
  <path class="cls-3" d="M11.39,21.77h-.1s.06,0,.06,0c.02,0,.03,0,.04,0Z"/>
  <polygon class="cls-3" points="11.63 21.93 11.63 21.77 11.43 21.77 11.63 21.93"/>
  <path class="cls-3" d="M6.39,8.65l-.91-.71-.91.71-.91-.71-.91.71-.91-.71-.91.71-.34-.26-.29-.23v.74l.29.23.34.26.91-.71.91.71.91-.71.91.71.91-.71.91.71.91-.71.24.18c.14-.14.3-.27.46-.39l-.7-.54-.91.71Z"/>
  <path class="cls-3" d="M5.47,9.99l-.91.71-.91-.71-.91.71-.91-.71-.91.71-.34-.26-.29-.23v.74l.29.23.34.26.91-.71.91.71.91-.71.91.71.91-.71.91.71.06-.04c0-.29.04-.56.11-.83l-.17.13-.91-.71Z"/>
  <path class="cls-2" d="M11.42,21.77s-.02,0-.03,0h.04,0Z"/>
  <path class="cls-2" d="M8.35,21.24h0c-.06-.04-.13-.08-.19-.12,0,0,0,0,0,0,.04.03.1.07.18.12Z"/>
  <path class="cls-2" d="M11.39,21.77h0s-.03,0-.04,0h-.9l-.42.32-.54-.42h0s-.04-.01-.07-.02c-.03,0-.06-.02-.09-.02-.12-.03-.25-.07-.37-.12l-.75.58-.91-.71-.91.71-.91-.71-.91.71-.91-.71-.91.71-.91-.71-.91.71-.34-.26-.29-.23v-.74l.29.23.34.26.91-.71.91.71.91-.71.91.71.91-.71.91.71.91-.71.91.71.15-.12c-.08-.04-.14-.08-.18-.12,0,0,0,0,0,0-.09-.06-.18-.12-.26-.19,0,0,0,0,0,0-.43-.34-.79-.76-1.04-1.25l-.48.37-.91-.71-.91.71-.91-.71-.91.71-.91-.71-.91.71-.34-.26-.29-.23v-.74l.29.23.34.26.91-.71.91.71.91-.71.91.71.91-.71.91.71.24-.19c-.12-.36-.18-.74-.18-1.14v-1.25l-.06.04-.91-.71-.91.71-.91-.71-.91.71-.91-.71-.91.71-.34-.26-.24-.18v-.74l.24.18.34.26.91-.71.91.71.91-.71.91.71.91-.71.91.71.06-.04v-1.3l-.06.04-.91-.71-.91.71-.91-.71-.91.71-.91-.71-.91.71-.34-.26-.24-.18v-.74l.24.18.34.26.91-.71.91.71.91-.71.91.71.91-.71.91.71.06-.04v-2.48s0-.04,0-.05l-.06.04-.91-.71-.91.71-.91-.71-.91.71-.91-.71-.91.71-.34-.26-.29-.23v-.74l.29.23.34.26.91-.71.91.71.91-.71.91.71.91-.71.91.71.17-.13c.17-.65.51-1.23.98-1.69l-.24-.18-.91.71-.91-.71-.91.71-.91-.71-.91.71-.91-.71-.91.71-.34-.26-.29-.23v-.74l.29.23.34.26.91-.71.91.71.91-.71.91.71.91-.71.91.71.91-.71.7.54c.63-.45,1.41-.72,2.25-.72h5.2c-.17-.6-.73-1.04-1.38-1.04H4.74s-3.3.01-3.3.01C.72,6.75.13,7.27.02,7.95c-.01.08-.02.16-.02.24v3.03c0,.47.22.88.57,1.15-.29.22-.49.54-.55.91-.01.08-.02.16-.02.24v3.03c0,.47.23.89.57,1.15-.29.22-.49.54-.55.91-.01.08-.02.15-.02.23v3.03c0,.47.22.89.57,1.15-.29.22-.49.54-.55.91-.01.08-.02.15-.02.23v3.03c0,.79.64,1.44,1.44,1.44h3.89s6.3-.01,6.3-.01v-6.69l-.2-.15h-.04ZM.29,24.14l.29.23.34.26.91-.71.91.71.91-.71.91.71.91-.71.91.71.91-.71.91.71.91-.71.91.71.91-.71.1.08.35.27v.75s-.35-.27-.35-.27l-.1-.08-.91.71-.91-.71-.91.71-.91-.71-.91.71-.91-.71-.91.71-.91-.71-.91.71-.91-.71-.91.71-.34-.26-.29-.23v-.74ZM11.04,26.79l-.1-.08-.91.71-.91-.71-.91.71-.91-.71-.91.71-.91-.71-.91.71-.91-.71-.91.71-.91-.71-.91.71-.34-.26-.29-.23v-.74l.29.23.34.26.91-.71.91.71.91-.71.91.71.91-.71.91.71.91-.71.91.71.91-.71.91.71.91-.71.1.08.35.27v.75s-.35-.27-.35-.27Z"/>
  <polygon class="cls-3" points=".92 25.38 1.83 24.67 2.74 25.38 3.65 24.67 4.56 25.38 5.47 24.67 6.39 25.38 7.29 24.67 8.21 25.38 9.12 24.67 10.03 25.38 10.94 24.67 11.04 24.75 11.39 25.02 11.38 24.27 11.04 24 10.94 23.93 10.03 24.63 9.12 23.93 8.21 24.63 7.29 23.93 6.39 24.63 5.47 23.93 4.56 24.63 3.65 23.93 2.74 24.63 1.83 23.93 .92 24.63 .59 24.37 .29 24.14 .29 24.89 .59 25.11 .92 25.38"/>
  <polygon class="cls-3" points="11.04 26.05 10.94 25.97 10.03 26.68 9.12 25.97 8.21 26.68 7.29 25.97 6.39 26.68 5.47 25.97 4.56 26.68 3.65 25.97 2.74 26.68 1.83 25.97 .92 26.68 .59 26.42 .29 26.19 .29 26.93 .59 27.16 .92 27.42 1.83 26.72 2.74 27.42 3.65 26.72 4.56 27.42 5.47 26.72 6.39 27.42 7.29 26.72 8.21 27.42 9.12 26.72 10.03 27.42 10.94 26.72 11.04 26.79 11.39 27.07 11.39 26.32 11.04 26.05"/>
  <polygon class="cls-5" points="12.35 17.39 12.35 17.39 12.34 17.4 12.35 17.39"/>
  <path class="cls-2" d="M18.53,19.07c-1.05,0-1.91.82-1.91,1.83s.85,1.83,1.91,1.83,1.91-.82,1.91-1.83-.85-1.83-1.91-1.83Z"/>
  <path class="cls-2" d="M33.2,24.08l-2.32-2.32h.45c.1,0,.17-.08.17-.17v-.83h-3.39v.83c0,.1.08.17.17.17h.45,0s-2.31,2.32-2.31,2.32c-.18.18-.18.48,0,.67l2.66,2.66h-1.13c-.12,0-.21.09-.21.21v1.01h4.15v-1.01c0-.12-.1-.21-.21-.21h-1.13l2.66-2.66c.18-.18.18-.48,0-.67ZM31.85,24.77l-2.05,2.05-2.05-2.05h4.09ZM27.67,24.15l2.13-2.14,2.13,2.14h-4.27Z"/>
  <path class="cls-4" d="M28.86,3.53l-5.41,5.18h9.67v12.12h-1.61v-.06h-3.39v.06h-2.39c-.04-3.77-3.24-6.82-7.19-6.82-1.11,0-2.16.24-3.09.67-.11.05-.22.1-.32.16-.17.09-.33.18-.49.28-.38.24-.74.51-1.07.82-.15.13-.29.27-.42.42-.18.19-.34.39-.49.6h0c-.06.08-.11.16-.16.24,0,0,0,0,0,0-.04.07-.09.13-.13.2,0,0,0,0,0,.01-.11.18-.22.37-.31.57-.18.36-.33.74-.44,1.14-.06.21-.11.42-.14.63-.02.12-.04.24-.05.36-.03.24-.05.49-.05.73h-.97c-.82,0-1.56-.32-2.1-.83-.36-.34-.63-.77-.77-1.24-.08-.25-.12-.51-.12-.78v-6.53c0-.2.02-.4.07-.59.05-.2.12-.4.21-.58.33-.67.93-1.18,1.67-1.42.29-.09.59-.14.91-.14h9.28L27.85.73c.49-.47,1.15-.73,1.85-.73h3.42v3.05h-3.04c-.46,0-.9.17-1.22.48Z"/>
</svg>