<?xml version="1.0" encoding="UTF-8"?>
<svg id="Layer_1" data-name="Layer 1" xmlns="http://www.w3.org/2000/svg" viewBox="0 0 36.41 26.94">
  <defs>
    <style>
      .cls-1, .cls-2, .cls-3, .cls-4, .cls-5, .cls-6, .cls-7 {
        stroke-width: 0px;
      }

      .cls-1, .cls-3 {
        fill: none;
      }

      .cls-2 {
        fill: #181814;
      }

      .cls-3 {
        stroke: #181814;
        stroke-linecap: round;
        stroke-linejoin: round;
      }

      .cls-4 {
        fill: #000;
      }

      .cls-5 {
        fill: #747274;
      }

      .cls-6 {
        fill: #c1373c;
      }

      .cls-7 {
        fill: #fff;
      }
    </style>
  </defs>
  <path class="cls-1" d="M18.24,13.58c-.07.02-.14.03-.21.03-.37,0-.72-.25-.82-.63l-.11-.42.11.42c.1.38.44.63.82.63.07,0,.14,0,.22-.03.45-.12.72-.58.6-1.03l-.12-.47.12.47c.12.45-.15.91-.6,1.03Z"/>
  <path class="cls-1" d="M20.27,12.88c.16-.11.26-.27.31-.45-.05.18-.16.34-.31.45Z"/>
  <polygon class="cls-1" points="17.1 12.86 17.07 12.48 17.07 12.48 17.1 12.86"/>
  <path class="cls-1" d="M20.5,11.79c.04.07.07.15.09.23-.02-.08-.05-.16-.09-.23l-1.25-2.23s0,0,0,0l1.25,2.23Z"/>
  <path class="cls-1" d="M12.56,13.82s.08.03.12.04c0,0,0,0,.01,0,0,0,0,0-.01,0-.04,0-.08-.02-.12-.03Z"/>
  <path class="cls-1" d="M13.58,13.46c.04-.06.07-.13.09-.21,0,0,0,0,0,0-.02.08-.05.14-.09.21Z"/>
  <path class="cls-1" d="M16.31,13.92s-.03,0-.05,0c-.09,0-.17-.01-.25-.04.08.02.16.04.25.04.02,0,.03,0,.05,0,.35-.02.64-.25.75-.56-.11.31-.4.54-.75.56Z"/>
  <polygon class="cls-1" points="15.4 12.71 15.4 12.78 15.4 12.71 15.4 12.71"/>
  <path class="cls-1" d="M14.98,13.86c.16-.11.29-.28.34-.48-.05.2-.18.37-.34.48Z"/>
  <path class="cls-1" d="M12.03,13.21s0,0,0,0c.06.26.24.48.49.59-.25-.11-.43-.33-.49-.59Z"/>
  <path class="cls-1" d="M20.93,19.35s0,0,0,0c-.79-.46-1.67-.79-2.6-.95.93.16,1.81.48,2.6.95Z"/>
  <path class="cls-1" d="M5.27,18.67c.13.07.27.13.41.18-.14-.05-.28-.11-.41-.18Z"/>
  <path class="cls-1" d="M7.5,1.44c0,.16-.1.29-.24.33.14-.05.24-.18.24-.33,0-.2-.16-.35-.35-.35-.31,0-.62.06-.9.16.28-.1.58-.16.9-.16.19,0,.35.16.35.35Z"/>
  <path class="cls-1" d="M8.36,16.39c0,1.04-.84,1.88-1.88,1.88-.58,0-1.11-.27-1.45-.69.35.42.87.69,1.45.69,1.04,0,1.88-.84,1.88-1.88,0-.53-.22-1-.57-1.34.35.34.57.82.57,1.34Z"/>
  <path class="cls-1" d="M5.68,18.85c.06.02.11.04.17.05.02,0,.04,0,.06.01-.02,0-.04,0-.06-.01-.06-.01-.12-.03-.17-.05Z"/>
  <path class="cls-1" d="M8.96,17.12c-.08.25-.19.49-.33.71.15-.22.26-.45.33-.71Z"/>
  <path class="cls-1" d="M25.5,13.71c0,.19-.16.35-.35.35-.15,0-.27-.09-.33-.22.05.13.18.22.33.22.2,0,.35-.16.35-.35,0-1.14.72-2.11,1.74-2.48-1.01.37-1.74,1.34-1.74,2.48Z"/>
  <path class="cls-1" d="M28.14,10.36c-1.15,0-2.17.59-2.78,1.48.6-.89,1.62-1.48,2.78-1.48.19,0,.35.16.35.35,0,.17-.12.31-.28.35.16-.03.28-.17.28-.35,0-.2-.16-.35-.35-.35Z"/>
  <path class="cls-1" d="M5.24,3.69c0,.08-.03.15-.07.21.05-.06.07-.13.07-.21,0-.53.21-1,.56-1.35-.35.35-.56.82-.56,1.35Z"/>
  <path class="cls-1" d="M11.3,13.64s-.03,0-.04,0c.01,0,.03,0,.04,0,.25,0,.49-.12.65-.31-.16.19-.4.31-.65.31Z"/>
  <path class="cls-1" d="M13.8,13.61s-.04-.06-.05-.09c.01.03.03.06.05.09Z"/>
  <path class="cls-1" d="M13.83,13.66s0,0-.01-.01c0,0,0,0,.01.01Z"/>
  <path class="cls-1" d="M9.46,13.05s0,0,0,0c0,0,0,0,.01,0,0,0-.01,0-.02,0,0,0,0,0,0,0Z"/>
  <path class="cls-1" d="M9.86,10.01s0,0,0,0l-.84,1.93c-.04.08-.06.17-.07.25,0-.09.03-.17.07-.25l.84-1.93Z"/>
  <path class="cls-1" d="M14.43,14h0s-.02,0-.04,0c.01,0,.02,0,.04,0Z"/>
  <path class="cls-1" d="M9.41,24.23h0c.51-1.8,1.59-3.34,3.02-4.4-1.43,1.06-2.51,2.61-3.02,4.4Z"/>
  <path class="cls-1" d="M20.59,12.02s0,0,0,0c0,0,0,0,0,0Z"/>
  <path class="cls-1" d="M20.25,12.89s-.02.01-.03.02c0,0,.02-.01.03-.02Z"/>
  <path class="cls-1" d="M20.17,12.94s-.09.04-.14.06c.05-.02.09-.03.14-.06Z"/>
  <path class="cls-1" d="M12.55,19.74s-.04.03-.06.04c.02-.01.04-.03.06-.04Z"/>
  <path class="cls-3" d="M8.96,17.12c-.08.26-.19.49-.33.71"/>
  <path class="cls-3" d="M5.91,18.91s-.04,0-.06-.01"/>
  <path class="cls-3" d="M3.36,24.1s.01,0,.02,0"/>
  <path class="cls-4" d="M20.66,13.16c.69.2,1.36.46,2,.76,0-.07,0-.15,0-.22,0-.18,0-.37.03-.55-.53-.24-1.08-.45-1.64-.62,0,0,0,.01,0,.02-.07.24-.2.44-.37.6Z"/>
  <path class="cls-2" d="M30.86,23.55s-.06,0-.09-.01c-.11-.01-.22-.02-.33-.03-.1,0-.21,0-.31-.01-.06,0-.12,0-.17,0-1.23,0-2.4.28-3.2.77-.05.03-.11.06-.16.09.01-.14.02-.28.02-.42,0-2.54-2.03-4.62-4.56-4.69-1.42-1.04-3.14-1.66-5.01-1.66-3.89,0-7.2,2.67-8.28,6.34-.72-.28-1.59-.43-2.5-.43-.86,0-1.68.14-2.38.38.15-.78.36-1.54.62-2.26s.59-1.43.97-2.09c.32.1.65.16,1,.16,1.82,0,3.29-1.48,3.29-3.29,0-.47-.1-.92-.28-1.32.51-.36,1.04-.68,1.59-.97.07.01.14.02.21.02.22,0,.44-.06.63-.16.18.18.4.31.66.36.09.02.18.03.27.03.27,0,.53-.08.75-.23.21.2.48.33.78.36.04,0,.09,0,.13,0,.36,0,.69-.14.92-.38.23.19.52.3.83.3.02,0,.05,0,.07,0,.35-.02.67-.17.9-.44.02-.03.05-.05.07-.08.21.14.45.21.71.21.11,0,.22-.02.33-.04.34-.09.62-.31.8-.61.01-.02.02-.04.03-.05.18.09.38.14.58.14.22,0,.44-.06.64-.17.09-.05.18-.11.25-.18.69.2,1.36.46,2,.76.12,2.92,2.53,5.27,5.48,5.27.09,0,.18,0,.27,0,.26-.01.52-.04.76-.09.78,1.36,1.36,2.86,1.68,4.45Z"/>
  <path class="cls-4" d="M5.68,18.85c-.14-.05-.28-.11-.41-.18,0,0-.01,0-.02,0,.19.1.39.18.6.24-.06-.01-.12-.03-.17-.05,0,0,0,0,0,0Z"/>
  <path class="cls-4" d="M3.36,24.1s0,0,0,0c0,0,.01,0,.02,0,.05-.02.1-.05.15-.07,0,0,0,0,0,0,.11-.05.23-.1.35-.14.15-.78.36-1.54.62-2.26s.59-1.43.97-2.09c-.23-.07-.44-.17-.65-.29-.85,1.52-1.45,3.2-1.72,5,.03-.02.06-.04.09-.05.05-.03.1-.06.16-.08Z"/>
  <path class="cls-4" d="M10.92,14.06c-.23-.07-.42-.2-.58-.36-.41.23-.81.48-1.2.75.14.19.26.4.35.61.51-.36,1.04-.68,1.59-.97-.06,0-.11-.02-.17-.04Z"/>
  <path class="cls-2" d="M20.93,19.35c-.79-.46-1.67-.79-2.6-.95-.42-.07-.84-.11-1.28-.11-1.67,0-3.22.54-4.5,1.45-.02.01-.04.03-.06.04-.02.01-.04.03-.06.05-1.43,1.06-2.51,2.61-3.02,4.4h0s.03.02.05.03h0c.21.13.46.24.74.34.82-3.18,3.58-5.52,6.85-5.52,1.01,0,1.97.22,2.84.63,0,0,0,0,0,0,.33-.16.68-.28,1.04-.36Z"/>
  <path class="cls-5" d="M12.43,19.83s.04-.03.06-.05c.02-.01.04-.03.06-.04,1.28-.91,2.83-1.45,4.5-1.45.44,0,.86.04,1.28.11.93.16,1.81.48,2.6.95.32-.07.65-.11.99-.11.05,0,.09,0,.14,0-1.42-1.04-3.14-1.66-5.01-1.66-3.89,0-7.2,2.67-8.28,6.34.06.02.11.04.16.07h0c.06.03.11.05.16.08h0c.11.05.21.11.31.16h0s0,0,0,0c0,0,0,0,0,0h0c.51-1.8,1.59-3.34,3.02-4.4Z"/>
  <path class="cls-5" d="M25.83,24.72c.02-.16.05-.33.06-.48,0-.05,0-.1.01-.15,0-.02,0-.04,0-.06,0-.03,0-.06,0-.08,0-1.8-1.2-3.33-2.84-3.82-.36-.11-.75-.17-1.15-.17-.03,0-.07,0-.1,0-.39,0-.77.08-1.13.19-.7.23-1.32.65-1.8,1.2-.05.06-.1.12-.14.18-.06.08-.12.16-.17.24-.02.03-.04.06-.06.09-.05.08-.1.17-.14.25,0,0,0,0,0,0-.07.14-.13.28-.19.43-.02.05-.04.1-.05.15-.09.26-.15.53-.18.81h0c.05,0,.1,0,.15,0,.19,0,.37,0,.55.02,0,0,0,0,0,0,.01-.08.02-.15.04-.23,0-.04.02-.09.03-.13.01-.05.03-.1.04-.16.41-1.35,1.66-2.34,3.14-2.34.62,0,1.21.17,1.7.48.14.08.26.17.39.28.08.07.16.14.23.21.59.59.96,1.42.96,2.32,0,.02,0,.04,0,.06-.01.27-.09.7-.21,1.07,0,0,0,0,0,0,.31-.05.57-.13.8-.22,0,0,0,0,0,.01,0,0,0,0,0-.01,0-.02,0-.04,0-.07,0-.02,0-.04,0-.07Z"/>
  <path class="cls-7" d="M28.14,9.63c-2.25,0-4.08,1.83-4.08,4.08s1.83,4.08,4.08,4.08,4.08-1.83,4.08-4.08-1.83-4.08-4.08-4.08ZM28.21,11.06s-.05,0-.07,0c-.32,0-.62.06-.91.16-1.01.37-1.74,1.34-1.74,2.48,0,.2-.16.35-.35.35-.02,0-.04,0-.05,0-.02,0-.03,0-.04,0,0,0,0,0,0,0s0,0,0,0c0,0,0,0,0,0,0,0,0,0,0,0,0,0,0,0-.01,0,0,0-.02,0-.02,0h0s0,0,0,0c-.01,0-.03-.01-.04-.02-.06-.04-.1-.09-.13-.16-.02-.04-.03-.09-.03-.14,0-.69.21-1.34.57-1.87.6-.89,1.62-1.48,2.78-1.48.2,0,.35.16.35.35,0,.17-.12.31-.28.35Z"/>
  <path class="cls-5" d="M32.9,13.22c-.24-2.41-2.29-4.3-4.76-4.3s-4.51,1.89-4.76,4.3c-.02.16-.02.32-.02.49s0,.33.02.49c.25,2.41,2.29,4.3,4.76,4.3s4.51-1.89,4.76-4.3c.02-.16.02-.32.02-.49s0-.33-.02-.49ZM28.14,17.78c-2.25,0-4.08-1.83-4.08-4.08s1.83-4.08,4.08-4.08,4.08,1.83,4.08,4.08-1.83,4.08-4.08,4.08Z"/>
  <path class="cls-5" d="M28.5,10.71c0-.19-.16-.35-.35-.35-1.15,0-2.17.59-2.78,1.48-.36.53-.57,1.18-.57,1.87,0,.05,0,.1.03.14.05.13.18.22.33.22.19,0,.35-.16.35-.35,0-1.14.72-2.11,1.74-2.48.28-.1.59-.16.91-.16.02,0,.05,0,.07,0,.16-.03.28-.18.28-.35Z"/>
  <path class="cls-7" d="M7.15.71c-1.65,0-2.99,1.34-2.99,2.99s1.34,2.99,2.99,2.99,2.99-1.34,2.99-2.99-1.34-2.99-2.99-2.99ZM7.26,1.77s-.07.02-.11.02c-.53,0-1,.21-1.35.56-.35.35-.56.82-.56,1.35,0,.01,0,.02,0,.03,0,.02,0,.04-.01.06,0,0,0,.02,0,.03,0,0,0,.02-.01.03h0s0,0,0,0c0,0,0,0,0,.01,0,0,0,0,0,0h0s0,0,0,.01c0,.01-.02.02-.02.04-.06.08-.16.14-.28.14-.2,0-.35-.16-.35-.35,0-1.12.72-2.09,1.72-2.45.28-.1.58-.16.9-.16.2,0,.35.16.35.35,0,.16-.1.29-.24.33Z"/>
  <path class="cls-5" d="M7.15,0c-2.04,0-3.69,1.66-3.69,3.69s1.66,3.69,3.69,3.69,3.69-1.66,3.69-3.69-1.66-3.69-3.69-3.69ZM7.15,6.68c-1.65,0-2.99-1.34-2.99-2.99S5.5.71,7.15.71s2.99,1.34,2.99,2.99-1.34,2.99-2.99,2.99Z"/>
  <path class="cls-5" d="M5.17,3.91c.05-.06.07-.13.07-.21,0-.53.21-1,.56-1.35.35-.35.82-.56,1.35-.56.04,0,.08,0,.11-.02.14-.05.24-.18.24-.33,0-.19-.16-.35-.35-.35-.31,0-.62.06-.9.16-1,.37-1.72,1.33-1.72,2.45,0,.19.16.35.35.35.11,0,.21-.05.28-.14Z"/>
  <path class="cls-7" d="M6.48,18.27c1.04,0,1.88-.84,1.88-1.88,0-.53-.22-1-.57-1.34-.34-.33-.8-.54-1.31-.54-1.04,0-1.88.84-1.88,1.88,0,.45.16.87.43,1.2.35.42.87.69,1.45.69Z"/>
  <path class="cls-5" d="M6.48,13.8c-1.43,0-2.59,1.16-2.59,2.59,0,.96.52,1.79,1.3,2.24.02.01.04.02.06.03,0,0,.01,0,.02.01.02,0,.04.02.05.03.01,0,.02.01.04.02,0,0,0,0,.01,0,0,0,0,0,.01,0,0,0,0,0,0,0,.02,0,.03.02.05.02,0,0,.02,0,.03.01h0s0,0,.01,0c0,0,0,0,.01,0,0,0,0,0,0,0,.02,0,.05.02.07.03.03.01.07.03.11.04,0,0,0,0,0,0,.06.02.11.04.17.05.02,0,.04,0,.06.01.18.04.37.06.57.06.71,0,1.36-.29,1.83-.76.12-.12.22-.25.32-.39.02-.03.04-.05.05-.08.03-.06.07-.11.1-.17.02-.03.03-.06.04-.09.03-.06.05-.12.08-.18s.04-.12.06-.19c.07-.23.11-.48.11-.73,0-1.43-1.16-2.59-2.59-2.59ZM6.48,18.27c-.58,0-1.11-.27-1.45-.69-.27-.33-.43-.74-.43-1.2,0-1.04.84-1.88,1.88-1.88.51,0,.98.21,1.32.54.35.34.57.82.57,1.34,0,1.04-.84,1.88-1.88,1.88Z"/>
  <path class="cls-7" d="M24.24,21.62c-.07-.07-.15-.15-.23-.21-.12-.1-.25-.19-.39-.28-.5-.3-1.08-.48-1.7-.48-1.48,0-2.74.99-3.14,2.34-.02.05-.03.1-.04.16-.01.04-.02.09-.03.13-.02.08-.03.15-.04.23.22.01.43.04.62.07.03,0,.05,0,.08.01.92.16,1.52.5,2.06.8.72.4,1.33.75,2.65.75.06,0,.12,0,.18,0,.27,0,.52-.03.73-.07.11-.38.2-.81.21-1.07,0-.02,0-.04,0-.06,0-.91-.37-1.73-.96-2.32ZM22.28,21.38c-.02.18-.17.32-.35.32-.92,0-1.73.59-2.01,1.46-.05.15-.19.24-.34.24-.04,0-.07,0-.11-.02-.02,0-.05-.02-.07-.03-.14-.08-.21-.25-.16-.41.38-1.16,1.46-1.95,2.68-1.95.2,0,.35.16.35.35,0,.01,0,.02,0,.04Z"/>
  <path class="cls-5" d="M21.93,21c-1.23,0-2.3.78-2.68,1.95-.05.16.02.33.16.41.02.01.04.02.07.03.04.01.07.02.11.02.15,0,.29-.09.34-.24.28-.87,1.09-1.46,2.01-1.46.18,0,.33-.14.35-.32,0-.01,0-.02,0-.04,0-.19-.16-.35-.35-.35Z"/>
  <path class="cls-7" d="M19.26,9.56c-.25.14-.49.25-.72.35-1.36.55-2.94.82-4.51.82-1.46,0-2.91-.24-4.17-.71l-.84,1.93c-.04.08-.06.17-.07.25-.03.35.16.71.5.86,0,0,0,0,0,0,0,0,.01,0,.02,0,.1.04.21.06.32.06.25,0,.5-.12.66-.32,0,.36.23.7.6.81.07.02.14.03.2.03.01,0,.03,0,.04,0,.25,0,.49-.12.65-.31.03-.04.06-.08.09-.13,0,0,0,0,0,0,0,0,0,0,0,0,.06.26.24.48.49.59.01,0,.03.01.04.02.04.01.08.03.12.03,0,0,0,0,.01,0,.06.01.11.02.16.02.3,0,.57-.16.72-.41.04-.06.07-.13.09-.21,0,0,0,0,0,0,0,0,0,0,0,0,.01.1.04.19.08.28.01.03.03.06.05.09,0,.01.01.03.02.04,0,0,0,0,.01.01.13.18.33.3.56.33.01,0,.02,0,.04,0,.03,0,.06,0,.08,0,.17,0,.34-.05.47-.14.16-.11.29-.28.34-.48.01-.05.02-.09.03-.14l.05-.53h0s0,0,0,0v.07s.02.34.02.34c.02.36.27.66.59.76.08.02.16.04.25.04.02,0,.03,0,.05,0,.35-.02.64-.25.75-.56.04-.1.05-.21.05-.33v-.17s-.03-.38-.03-.38h0s0,0,0,0l.02.09.11.42c.1.38.44.63.82.63.07,0,.14,0,.21-.03.45-.12.72-.58.6-1.03l-.12-.47-.02-.08.34.6c.15.28.44.43.74.43.09,0,.18-.02.27-.05.05-.02.09-.03.14-.06,0,0,0,0,0,0,.02,0,.03-.02.05-.03,0,0,.02-.01.03-.02,0,0,0,0,.01,0,.16-.11.26-.27.31-.45.04-.13.04-.27.01-.4,0,0,0,0,0,0,0,0,0,0,0,0-.02-.08-.05-.16-.09-.23l-1.25-2.23Z"/>
  <path class="cls-6" d="M31.6,1.63c-4.64-.09-8.74,2.71-11.45,4.56-1.02.7-1.9,1.3-2.48,1.53-2.13.85-5.15.86-7.19,0-.6-.25-1.29.03-1.54.63-.23.55,0,1.18.49,1.47l-.84,1.92c-.29.66.02,1.44.68,1.73.17.07.34.11.52.11.14,0,.28-.02.4-.06.04.06.09.12.14.18.15.17.35.29.58.36.05.02.11.03.17.04.07.01.14.02.21.02.22,0,.44-.06.63-.16.18.18.4.31.66.36.09.02.18.03.27.03.27,0,.53-.08.75-.23.21.2.48.33.78.36.04,0,.09,0,.13,0,.36,0,.69-.14.92-.38.23.19.52.3.83.3.02,0,.05,0,.07,0,.35-.02.67-.17.9-.44.02-.03.05-.05.07-.08.21.14.45.21.71.21.11,0,.22-.02.33-.04.34-.09.62-.31.8-.61.01-.02.02-.04.03-.05.18.09.38.14.58.14.22,0,.44-.06.64-.17.09-.05.18-.11.25-.18.18-.16.3-.37.37-.6,0,0,0-.01,0-.02.09-.33.05-.68-.12-.98l-1.25-2.24c.54-.32,1.13-.73,1.81-1.19,2.61-1.78,6.2-4.22,10.08-4.15h.02c.64,0,1.16-.51,1.18-1.15.01-.65-.5-1.19-1.15-1.2ZM20.5,11.79c.04.07.07.15.09.23,0,0,0,0,0,0h0c.03.14.02.28-.01.4-.05.18-.16.34-.31.45,0,0,0,0-.01,0,0,0-.02.01-.02.02-.02.01-.03.02-.05.03,0,0,0,0,0,0-.04.02-.09.04-.14.06-.09.03-.18.05-.27.05-.3,0-.58-.16-.74-.43l-.34-.6.02.08.12.47c.12.45-.15.91-.6,1.03-.07.02-.14.03-.22.03-.37,0-.72-.25-.82-.63l-.11-.42-.02-.09.02.38v.17c.02.12,0,.23-.04.33-.11.31-.4.54-.75.56-.02,0-.03,0-.05,0-.09,0-.17-.01-.25-.04-.33-.1-.57-.4-.59-.76l-.02-.34v-.07s-.06.53-.06.53c0,.05-.01.1-.03.14-.05.2-.18.37-.34.48-.14.09-.3.14-.47.14-.03,0-.05,0-.08,0-.01,0-.02,0-.04,0-.23-.03-.43-.16-.56-.33,0,0,0,0-.01-.01,0-.01-.01-.02-.02-.04-.02-.03-.04-.06-.05-.09-.04-.08-.07-.18-.08-.28-.02.08-.05.14-.09.21-.15.25-.42.41-.72.41-.05,0-.11,0-.16-.02,0,0,0,0-.01,0-.04,0-.08-.02-.12-.04-.01,0-.03-.01-.04-.02-.25-.11-.43-.33-.49-.59-.02.04-.06.09-.09.13-.16.19-.39.31-.65.31-.01,0-.03,0-.04,0-.07,0-.14-.01-.2-.03-.37-.11-.6-.45-.6-.81-.16.2-.4.32-.66.32-.11,0-.22-.02-.32-.06,0,0-.01,0-.02,0h0c-.34-.15-.54-.5-.5-.86,0-.08.03-.17.06-.25l.84-1.93c1.26.47,2.71.71,4.17.71,1.57,0,3.15-.27,4.51-.82.23-.09.47-.21.72-.35l1.25,2.23Z"/>
  <path class="cls-6" d="M.59,26.94c1.62,0,2.47-.48,3.22-.9.72-.4,1.33-.75,2.65-.75s1.93.35,2.65.75c.75.42,1.6.9,3.22.9s2.47-.48,3.22-.9c.72-.4,1.33-.75,2.65-.75s1.93.35,2.65.75c.75.42,1.6.9,3.22.9s2.47-.48,3.22-.9c.72-.4,1.33-.75,2.65-.75s1.93.35,2.65.75c.75.42,1.6.9,3.22.9.32,0,.59-.26.59-.59s-.26-.59-.59-.59c-1.31,0-1.93-.35-2.65-.75-.75-.42-1.6-.9-3.22-.9s-2.47.48-3.22.9c-.09.05-.17.1-.26.14-.07.04-.15.08-.22.12-.55.28-1.15.49-2.17.49-1.32,0-1.93-.35-2.65-.75-.56-.32-1.18-.66-2.14-.82-.32-.05-.68-.08-1.08-.08s-.73.03-1.04.07c-.98.15-1.62.5-2.19.82-.72.4-1.33.75-2.65.75s-1.93-.35-2.65-.75c-.75-.42-1.6-.9-3.22-.9s-2.47.48-3.22.9c-.72.4-1.33.75-2.65.75-.33,0-.59.26-.59.59s.26.59.59.59Z"/>
</svg>