<?xml version="1.0" encoding="UTF-8"?>
<svg id="Layer_1" data-name="Layer 1" xmlns="http://www.w3.org/2000/svg" viewBox="0 0 22.55 26.12">
  <defs>
    <style>
      .cls-1 {
        fill: none;
      }

      .cls-1, .cls-2, .cls-3, .cls-4, .cls-5, .cls-6 {
        stroke-width: 0px;
      }

      .cls-2 {
        fill: #181814;
      }

      .cls-3 {
        fill: #191814;
      }

      .cls-4 {
        fill: #747274;
      }

      .cls-5 {
        fill: #c1373c;
      }

      .cls-6 {
        fill: #fff;
      }
    </style>
  </defs>
  <path class="cls-1" d="M12.88,13.41l1.49-1.49c1.34-1.34,1.34-3.52,0-4.87-.02-.02-.05-.05-.07-.07.02.02.05.04.07.07,1.34,1.34,1.34,3.52,0,4.87l-1.5,1.5-.62.62-.21.21.21-.21.62-.62Z"/>
  <path class="cls-1" d="M9.1,13.33h0c.12,0,.24.03.34.08-.1-.05-.21-.08-.34-.08Z"/>
  <path class="cls-1" d="M4.95,14.21c-.01-.05-.02-.11-.02-.16,0-.08.01-.15.04-.22-.02.07-.04.14-.04.22,0,.06,0,.11.02.16Z"/>
  <path class="cls-1" d="M9.44,13.42s.02.01.03.02c0,0-.02-.01-.03-.02Z"/>
  <path class="cls-1" d="M11.8,6.05c-.18,0-.36.03-.53.06.18-.04.35-.06.53-.06.24-.01.49,0,.73.05-.24-.04-.48-.06-.73-.05Z"/>
  <path class="cls-1" d="M4.46,21.61c.17-.09.33-.19.49-.31-.15.12-.32.22-.49.31Z"/>
  <polygon class="cls-1" points="7.4 18.89 7.63 18.66 7.4 18.89 7.1 19.19 6.1 20.19 7.1 19.19 7.4 18.89"/>
  <path class="cls-1" d="M7.02,15.16c-.11.06-.2.15-.26.26.06-.11.15-.2.26-.26Z"/>
  <path class="cls-1" d="M5.48,13.35s.06-.01.09-.02c-.03,0-.06,0-.09.02Z"/>
  <path class="cls-1" d="M5.64,13.33s-.05,0-.07,0c.02,0,.05,0,.07,0h0Z"/>
  <path class="cls-1" d="M7.37,11.61c.2,0,.38.08.51.21-.13-.13-.31-.21-.51-.21-.28,0-.51.16-.63.38.12-.23.36-.38.63-.38Z"/>
  <path class="cls-1" d="M6.78,12.72c.13.19.35.32.59.32.2,0,.38-.08.51-.21-.13.13-.31.21-.51.21-.25,0-.47-.13-.59-.32Z"/>
  <path class="cls-1" d="M9.61,14.56c.13-.13.21-.31.21-.51s-.08-.38-.21-.51c.13.13.21.31.21.51s-.08.38-.21.51Z"/>
  <path class="cls-3" d="M12.65,25.18h-3.86l-1.65-2.3,1.68-2.34s.05-.09.07-.14l.62.62c.59.59,1.34.92,2.12.99l-.44.61c-.12.16-.12.38,0,.55l1.46,2.03Z"/>
  <path class="cls-3" d="M6.17,23.15l1.46,2.03H3.42v-3.21c.36-.06.72-.18,1.05-.35.17-.09.33-.19.49-.31.12-.09.23-.19.34-.29l.81-.81,1-1,.76,1.06-1.69,2.34c-.12.16-.12.38,0,.55Z"/>
  <path class="cls-3" d="M18.85,4.27c.12.16.12.39,0,.55l-1.68,2.34,1.68,2.34c.12.16.12.39,0,.55l-1.68,2.34,1.68,2.34c.12.16.12.39,0,.55l-1.68,2.34,1.68,2.34c.12.16.12.39,0,.55l-1.68,2.34,1.65,2.3h2.79V3.62c0-1.48-1.2-2.68-2.68-2.68h-1.06l-.71.98,1.68,2.34Z"/>
  <path class="cls-3" d="M6.17,7.43l1.23,1.71h-.01s-2.11-2.1-2.11-2.1c-.53-.53-1.19-.85-1.87-.96v-2.47c0-1.48,1.2-2.68,2.68-2.68h.59l-.51.71c-.12.16-.12.38,0,.55l1.69,2.34-1.69,2.34c-.12.16-.12.38,0,.55Z"/>
  <path class="cls-3" d="M16.21,12.12c-.12.16-.12.39,0,.55l1.68,2.34-1.68,2.34c-.12.16-.12.38,0,.55l1.68,2.34-1.68,2.34c-.12.16-.12.38,0,.55l1.46,2.03h-3.86l-1.65-2.3.71-.99c.55-.15,1.07-.45,1.51-.88,1.34-1.34,1.34-3.52,0-4.87l-.67-.67.13-.18c.12-.16.12-.38,0-.55l-.96-1.33,1.5-1.5c1.34-1.34,1.34-3.52,0-4.87-.02-.02-.05-.05-.07-.07-.42-.4-.91-.67-1.44-.81l.97-1.35c.12-.16.12-.38,0-.55l-1.68-2.34.7-.98h3.86l-.51.71c-.12.16-.12.38,0,.55l1.68,2.34-1.68,2.34c-.12.16-.12.38,0,.55l1.68,2.34-1.68,2.34Z"/>
  <path class="cls-3" d="M12.88,4.54l-1.08,1.5c-.18,0-.36.03-.53.06-.52.1-1.01.32-1.44.66-.11.08-.21.18-.31.28l-1.43,1.43-.94-1.32,1.68-2.34c.12-.16.12-.38,0-.55l-1.68-2.34.7-.98h3.86l-.51.71c-.12.16-.12.38,0,.55l1.68,2.34Z"/>
  <path class="cls-2" d="M22.55,3.62v22.5H2.48v-4.13c.12.01.25.02.38.02.09,0,.18,0,.27-.01.1,0,.2-.02.3-.04v3.21h4.21l.23.32-.11.15h1.13c.05-.14.03-.3-.06-.43l-.03-.04h3.86l.23.32-.11.15h1.13c.05-.14.03-.3-.06-.43l-.03-.04h3.86l.23.32-.11.15h1.13c.05-.14.03-.3-.06-.43l-.03-.04h2.79V3.62c0-1.48-1.2-2.68-2.68-2.68h-1.06l.34-.47h-1.16l-.34.47h-3.86l.34-.47h-1.16l-.34.47h-3.86l.34-.47h-1.16l-.34.47h-.59c-1.48,0-2.68,1.2-2.68,2.68v2.47c-.31-.05-.63-.06-.94-.03v-2.45c0-1.99,1.62-3.62,3.62-3.62h12.85c1.99,0,3.62,1.62,3.62,3.62Z"/>
  <path class="cls-4" d="M16.21,2.2l1.68,2.34-1.68,2.34c-.12.16-.12.39,0,.55l1.68,2.34-1.68,2.34c-.12.16-.12.39,0,.55l1.68,2.34-1.68,2.34c-.12.16-.12.39,0,.55l1.68,2.34-1.68,2.34c-.12.16-.12.39,0,.55l1.46,2.03.23.32-.11.15h1.13c.05-.14.03-.3-.06-.43l-.03-.04-1.65-2.3,1.68-2.34c.12-.16.12-.39,0-.55l-1.68-2.34,1.68-2.34c.12-.16.12-.39,0-.55l-1.68-2.34,1.68-2.34c.12-.16.12-.39,0-.55l-1.68-2.34,1.68-2.34c.12-.16.12-.39,0-.55l-1.68-2.34.71-.98.34-.47h-1.16l-.34.47-.51.71c-.12.16-.12.39,0,.55Z"/>
  <path class="cls-4" d="M8.82,4.82l-1.68,2.34.94,1.32-.67.67-1.23-1.71c-.12-.16-.12-.39,0-.55l1.69-2.34-1.69-2.34c-.12-.16-.12-.39,0-.55l.51-.71.34-.47h1.16l-.34.47-.7.98,1.68,2.34c.12.16.12.38,0,.55Z"/>
  <path class="cls-4" d="M8.88,25.65h-1.13l.11-.15-.23-.32-1.46-2.03c-.12-.16-.12-.39,0-.55l1.69-2.34-.76-1.06.3-.3,1.49,1.49c-.02.05-.04.1-.07.14l-1.68,2.34,1.65,2.3.03.04c.09.13.11.28.06.43Z"/>
  <path class="cls-4" d="M13.84,15.29l-.13.18-1.45-1.45.62-.62.96,1.33c.12.16.12.38,0,.55Z"/>
  <path class="cls-4" d="M13.9,25.65h-1.13l.11-.15-.23-.32-1.46-2.03c-.12-.16-.12-.39,0-.55l.44-.61c.1,0,.21.01.32.01.31,0,.62-.04.92-.13l-.71.99,1.65,2.3.03.04c.09.13.11.28.06.43Z"/>
  <path class="cls-4" d="M13.84,4.82l-.97,1.35c-.11-.03-.23-.05-.34-.07-.24-.04-.49-.06-.73-.05l1.08-1.5-1.68-2.34c-.12-.16-.12-.39,0-.55l.51-.71.34-.47h1.16l-.34.47-.7.98,1.68,2.34c.12.16.12.38,0,.55Z"/>
  <path class="cls-5" d="M14.79,18.57c0,.76-.3,1.48-.84,2.02-.54.54-1.25.84-2.02.84s-1.48-.3-2.02-.84l-2.11-2.11,4.03-4.03,2.11,2.11c.54.54.84,1.26.84,2.02Z"/>
  <path class="cls-5" d="M6.98,9.57l-4.03,4.03-2.11-2.11c-.54-.54-.84-1.26-.84-2.02s.3-1.48.84-2.02c.54-.54,1.26-.84,2.02-.84s1.48.3,2.02.84l2.11,2.11Z"/>
  <path class="cls-5" d="M13.96,7.46c-.54-.54-1.25-.84-2.02-.84s-1.48.3-2.02.84l-2.42,2.42-5.04,5.04-.28.28-1.35,1.35c-.53.54-.83,1.25-.83,2.01s.3,1.48.84,2.02c.09.09.18.17.28.25.16.12.33.23.5.31.38.18.8.28,1.23.28.63,0,1.23-.2,1.72-.58,0,0,0,0,.01-.01.1-.08.2-.16.29-.25l.34-.34,4.74-4.74,4.01-4.01c.44-.44.72-1,.81-1.61.02-.13.03-.27.03-.41,0-.76-.3-1.48-.84-2.02ZM9.82,14.05c0,.2-.08.38-.21.51-.13.13-.31.21-.51.21-.4,0-.72-.32-.72-.72,0-.2.08-.38.21-.51.13-.13.31-.21.51-.21.12,0,.24.03.34.08,0,0,0,0,0,0,0,0,.02.01.03.02.05.03.1.07.14.11.13.13.21.31.21.51ZM6.74,11.99c.12-.23.36-.38.63-.38.2,0,.38.08.51.21s.21.31.21.51-.08.38-.21.51c-.01.01-.03.02-.04.04,0,0-.02.02-.03.02,0,0-.01,0-.02.01,0,0,0,0,0,0,0,0,0,0,0,0,0,0,0,0,0,0h0s0,0,0,0c-.04.02-.08.05-.12.06-.04.02-.09.03-.13.04-.05,0-.1.01-.14.01-.25,0-.47-.13-.59-.32-.08-.11-.12-.25-.12-.4,0-.12.03-.23.08-.33ZM4.96,13.83c.08-.24.27-.42.52-.48.03,0,.06-.01.09-.02h0s.05,0,.07,0c.4,0,.72.32.72.72s-.32.72-.72.72c-.34,0-.62-.24-.7-.55-.01-.05-.02-.11-.02-.16,0-.08.01-.15.04-.22ZM7.85,15.24s.01,0,.02.01c.02.01.03.03.04.04.01.01.02.02.03.04.03.03.05.07.07.1,0,.02.02.03.02.05,0,0,0,0,0,.01,0,.01,0,.02.01.04,0,0,0,.02,0,.02,0,.01,0,.03.01.05,0,0,0,.01,0,.02,0,.05.01.09.01.14,0,.4-.32.72-.72.72s-.72-.32-.72-.72c0-.02,0-.04,0-.07,0-.01,0-.03,0-.04,0-.01,0-.02,0-.03,0-.01,0-.02,0-.04,0,0,0-.02,0-.03,0,0,0,0,0,0,0-.02.01-.04.02-.06.01-.03.03-.06.04-.09.02-.03.04-.06.06-.09,0-.01.02-.02.03-.03.01-.02.03-.03.04-.04.02-.01.03-.03.05-.04,0,0,0,0,0,0,.02-.02.05-.03.07-.05.11-.06.23-.1.36-.1.02,0,.04,0,.06,0,.02,0,.05,0,.07,0,.02,0,.05,0,.07.02.01,0,.02,0,.03,0,.03,0,.06.02.09.04.01,0,.02.01.03.02.01,0,.02.01.03.02.02,0,.03.02.05.03.02.01.03.02.05.04Z"/>
  <path class="cls-6" d="M6.78,12.72c.13.19.35.32.59.32.2,0,.38-.08.51-.21.13-.13.21-.31.21-.51s-.08-.38-.21-.51c-.13-.13-.31-.21-.51-.21-.28,0-.51.16-.63.38-.05.1-.08.21-.08.33,0,.15.05.29.12.4Z"/>
  <path class="cls-6" d="M7.37,16.49c.4,0,.72-.32.72-.72s-.32-.72-.72-.72c-.13,0-.25.03-.36.1-.11.06-.2.15-.26.26-.06.11-.1.23-.1.36,0,.4.32.72.72.72Z"/>
  <path class="cls-6" d="M9.1,14.77c.2,0,.38-.08.51-.21.13-.13.21-.31.21-.51s-.08-.38-.21-.51c-.04-.04-.09-.08-.14-.11,0,0-.02-.01-.03-.02,0,0,0,0,0,0-.1-.05-.22-.08-.34-.08h0c-.4,0-.72.32-.72.72s.32.72.72.72Z"/>
  <path class="cls-6" d="M4.95,14.21c.07.32.36.55.7.55.4,0,.72-.32.72-.72s-.32-.72-.72-.72h0s-.05,0-.07,0c0,0,0,0,0,0-.03,0-.06,0-.09.02-.24.06-.44.24-.52.47-.02.07-.04.14-.04.22,0,.06,0,.11.02.16Z"/>
</svg>