<?xml version="1.0" encoding="UTF-8"?>
<svg id="Layer_1" data-name="Layer 1" xmlns="http://www.w3.org/2000/svg" viewBox="0 0 35.21 29.36">
  <defs>
    <style>
      .cls-1 {
        fill: none;
      }

      .cls-1, .cls-2, .cls-3, .cls-4, .cls-5, .cls-6 {
        stroke-width: 0px;
      }

      .cls-2 {
        fill: #181814;
      }

      .cls-3 {
        fill: #191814;
      }

      .cls-4 {
        fill: #747274;
      }

      .cls-5 {
        fill: #c1373c;
      }

      .cls-6 {
        fill: #fff;
      }
    </style>
  </defs>
  <path class="cls-1" d="M12.03,17.38h0s0,0,0,0c0-.01,0-.03,0-.04,0,0,0,0,0,0,0,.03,0,.06-.01.09,0-.02,0-.03,0-.05Z"/>
  <path class="cls-1" d="M12,17.54h0s0-.02,0-.03c0-.01,0-.03,0-.04,0,.03-.01.07-.02.1,0,0,0-.02,0-.02Z"/>
  <path class="cls-1" d="M30.63,12.29c.17.04.32.12.45.25.11.11.19.25.23.4-.04-.14-.12-.28-.23-.4-.13-.13-.29-.21-.45-.25Z"/>
  <path class="cls-1" d="M11.93,17.77s.02-.04.02-.06c.01-.03.02-.06.03-.09,0,0,0-.01,0-.02-.02.08-.05.15-.08.23,0-.02.01-.03.02-.05Z"/>
  <path class="cls-1" d="M11.78,18.07s.04-.06.05-.09c0,0,0,0,0-.01-.02.03-.04.07-.06.1,0,0,0,0,0,0Z"/>
  <path class="cls-1" d="M11.69,18.19s.05-.07.07-.1c0,0,0,0,0,0-.02.04-.05.07-.08.11-.27.34-.66.55-1.09.59s-.86-.08-1.19-.35c-.09-.07-.17-.15-.24-.24-.21-.26-.33-.57-.36-.88.03.32.15.62.36.88.07.09.15.17.24.24.34.27.76.4,1.19.35s.82-.26,1.09-.59Z"/>
  <path class="cls-1" d="M11.86,17.94s0,0,0,0h0s0,0,0,0h0s.03-.05.04-.08c0,0,0,0,0,0-.02.04-.03.07-.05.11,0,0,0,0,0-.01Z"/>
  <path class="cls-1" d="M8.8,17.1c.01-.3.11-.6.29-.86-.18.26-.28.55-.29.86Z"/>
  <path class="cls-1" d="M11.9,16.51c.08.17.12.35.14.53-.02-.18-.06-.36-.14-.53Z"/>
  <path class="cls-1" d="M12.04,17.25s0-.05,0-.07h0s0,.06,0,.09c0,0,0-.01,0-.02Z"/>
  <path class="cls-1" d="M7.31,16.36s0,0,0,0c0,0,0,.02,0,.02,0,0,0,.02,0,.03,0,0,0,.01,0,.02,0-.02.01-.04.02-.06Z"/>
  <path class="cls-1" d="M6.01,13.68c.03-.1.03-.21,0-.31.03.1.03.21,0,.31Z"/>
  <path class="cls-1" d="M5.94,9.04l-.77.97.77-.97c.11-.14.13-.32.06-.47.06.15.04.33-.06.47Z"/>
  <polygon class="cls-1" points="4.53 16.23 4.28 15.92 4.28 15.92 4.53 16.23"/>
  <path class="cls-1" d="M5.97,18.55c.08-.14.09-.31.01-.46.07.14.07.32-.01.46Z"/>
  <path class="cls-1" d="M3.76,5.5l.37-.47h1.2s-1.2,0-1.2,0l-.37.47h-.42c-.33,0-.64.07-.93.19.29-.12.6-.19.93-.19h.42Z"/>
  <path class="cls-1" d="M22.72,10.4s.07-.03.11-.04c.05-.01.09-.02.14-.03-.05,0-.09.01-.14.03-.04.01-.07.03-.11.04Z"/>
  <path class="cls-5" d="M33.2,2.72c.07-.19.07-.38.02-.56-.08-.29-.29-.53-.59-.64-.18-.06-.37-.12-.56-.17-.5-.13-1.02.17-1.15.67-.12.44.1.88.49,1.08.06.03.12.05.18.07.14.04.28.08.41.13.26.09.52.06.75-.05.2-.11.37-.29.45-.52Z"/>
  <path class="cls-5" d="M26,1.45c.09.14.22.26.37.33.08.04.16.07.26.09.14.03.28.06.42.09.5.13,1.02-.17,1.15-.67.13-.5-.17-1.02-.67-1.15-.19-.05-.38-.09-.57-.13-.32-.06-.62.05-.83.26-.13.13-.23.3-.26.5-.04.24,0,.48.13.68Z"/>
  <path class="cls-3" d="M9.49,20.99c-.18-.04-.36-.1-.53-.17l.68.86-.15-.69Z"/>
  <path class="cls-2" d="M15.07,4.56H3.34c-1.84,0-3.34,1.5-3.34,3.34v20.58h13.1c-.38-.28-.73-.6-1.05-.94-.94-1-1.62-2.25-1.94-3.64l-1.25,1.58,1.62,2.06.03.04c.1.12.12.29.08.43h-1.16l.11-.14-.26-.33-1.39-1.77c-.13-.17-.13-.41,0-.58l1.65-2.1-1.65-2.1c-.13-.17-.13-.41,0-.58l.11-.14s-.03-.03-.05-.04c-.82-.66-1.33-1.6-1.44-2.64-.11-1.04.19-2.07.85-2.88.54-.66,1.26-1.12,2.06-1.33l-1.53-1.95c-.13-.17-.13-.41,0-.58l1.65-2.1-1.65-2.1c-.13-.17-.13-.41,0-.58l.44-.56.37-.47h1.2l-.37.47-.67.86,1.65,2.1c.14.17.14.41,0,.58l-1.65,2.1,1.65,2.1s0,0,0,0c.86.02,1.7.33,2.37.87.16.13.31.27.44.42l.79-1.01-1.65-2.1c-.13-.17-.13-.41,0-.58l1.65-2.1-1.65-2.1c-.13-.17-.13-.41,0-.58l.44-.56.37-.47h1.2l-.37.47-.67.86,1.65,2.1c.13.17.13.41,0,.58l-1.65,2.1,1.65,2.1c.13.17.13.41,0,.58l-1.2,1.52c.23.44.38.92.43,1.42.01.1.02.21.02.31l.75.95c.13.17.13.41,0,.58l-1.65,2.1,1.65,2.1c.13.17.13.41,0,.58l-1.08,1.37c.78,1.13,2.04,1.89,3.46,2.01.12,0,.24.02.36.02.19,0,.39-.01.58-.04V7.9c0-1.84-1.5-3.34-3.34-3.34ZM4.53,16.23l1.41,1.79s.03.05.05.08c.07.14.07.32-.01.46-.01.02-.02.03-.03.05l-1.62,2.06-.04.04,1.65,2.1s.05.07.06.11c.06.15.05.32-.05.45,0,0,0,.02-.02.03l-1.65,2.1,1.62,2.06h0l.03.04c.07.09.1.19.1.29,0,.05,0,.09-.02.14h-1.16l.08-.1.03-.04-.12-.15-.14-.18-1.39-1.77c-.14-.17-.14-.41,0-.58l1.65-2.1-1.65-2.1c-.14-.17-.14-.41,0-.58l1.65-2.1-1.65-2.1c-.14-.17-.14-.41,0-.58l1.65-2.1-1.65-2.1c-.14-.17-.14-.41,0-.58l1.65-2.1-1.65-2.1c-.14-.17-.14-.41,0-.58l.44-.56.37-.47h1.2l-.37.47h0l-.67.85h0s1.65,2.11,1.65,2.11c.03.03.05.07.06.11.06.15.04.33-.06.47l-.77.97-.89,1.12,1.65,2.1s.06.09.08.14c.03.1.03.21,0,.31-.02.05-.04.1-.08.14l-1.65,2.1.24.31Z"/>
  <path class="cls-3" d="M13,21.65l.31,1.45c.05.26.13.5.22.74l.6-.76-1.13-1.44Z"/>
  <path class="cls-4" d="M15.1,22.8c.13.17.13.41,0,.58l-1.08,1.37c-.19-.28-.36-.58-.48-.91l.6-.76-1.13-1.44-.28-1.29c.28-.2.54-.44.76-.72.59-.74.9-1.64.87-2.57l.75.95c.13.17.13.41,0,.58l-1.65,2.1,1.65,2.1Z"/>
  <path class="cls-4" d="M15.1,13.24l-1.65-2.1,1.65-2.1c.13-.17.13-.41,0-.58l-1.65-2.1.67-.86.37-.47h-1.2l-.37.47-.44.56c-.13.17-.13.41,0,.58l1.65,2.1-1.65,2.1c-.13.17-.13.41,0,.58l1.65,2.1-.79,1.01c.22.24.41.51.56.8l1.2-1.52c.13-.17.13-.41,0-.58Z"/>
  <path class="cls-4" d="M4.32,20.65l-.04.04,1.65,2.1s.05.07.06.11c.06.15.05.32-.05.45,0,0,0,.02-.02.03l-1.65,2.1,1.62,2.06h0l.03.04c.07.09.1.19.1.29,0,.05,0,.09-.02.14h-1.16l.08-.1.03-.04-.12-.15-.14-.18-1.39-1.77c-.14-.17-.14-.41,0-.58l1.65-2.1-1.65-2.1c-.14-.17-.14-.41,0-.58l1.65-2.1-1.65-2.1c-.14-.17-.14-.41,0-.58l1.65-2.1-1.65-2.1c-.14-.17-.14-.41,0-.58l1.65-2.1-1.65-2.1c-.14-.17-.14-.41,0-.58l.44-.56.37-.47h1.2l-.37.47h0l-.67.85h0s1.65,2.11,1.65,2.11c.03.03.05.07.06.11.06.15.04.33-.06.47l-.77.97-.89,1.12,1.65,2.1s.06.09.08.14c.03.1.03.21,0,.31-.02.05-.04.1-.08.14l-1.65,2.1.24.31,1.41,1.79s.03.05.05.08c.07.14.07.32-.01.46-.01.02-.02.03-.03.05l-1.62,2.06Z"/>
  <path class="cls-4" d="M10.6,28.01h-1.16l.11-.14-.26-.33-1.39-1.77c-.13-.17-.13-.41,0-.58l1.65-2.1-1.65-2.1c-.13-.17-.13-.41,0-.58l.11-.14c.29.23.61.41.95.55l.68.86.45,2.12s.02.07.03.11l-1.25,1.58,1.62,2.06.03.04c.1.12.12.29.08.43Z"/>
  <path class="cls-4" d="M8.86,11.14l1.65-2.1c.14-.17.14-.41,0-.58l-1.65-2.1.67-.86.37-.47h-1.2l-.37.47-.44.56c-.13.17-.13.41,0,.58l1.65,2.1-1.65,2.1c-.13.17-.13.41,0,.58l1.53,1.95c.32-.08.66-.13,1-.13.03,0,.06,0,.1,0,0,0,0,0,0,0l-1.65-2.1Z"/>
  <polygon class="cls-5" points="13.34 18.54 13.34 18.54 13.34 18.54 13.34 18.54"/>
  <path class="cls-5" d="M13.38,18.45s-.01.03-.02.04h0s.01-.03.02-.04Z"/>
  <polygon class="cls-5" points="7.92 15.14 7.92 15.15 7.92 15.15 7.92 15.14"/>
  <path class="cls-5" d="M7.32,16.3s0-.02,0-.03c0-.03.02-.05.02-.08h0s0,0,0,0c0,0,0,0,0,0,0,0,0-.01,0-.02-.02.05-.03.1-.05.15,0,0,0,0,0,0,0,0,0,0,0-.01Z"/>
  <path class="cls-5" d="M7.29,16.41s0-.02,0-.03c0,0,0,.02,0,.03Z"/>
  <path class="cls-5" d="M7.39,16.09s0-.02.01-.03c0,.01,0,.02-.01.03Z"/>
  <path class="cls-5" d="M7.39,16.09s-.01.04-.02.05c0-.02.01-.03.02-.05,0,0,0,0,0,0Z"/>
  <path class="cls-5" d="M7.66,15.52s0,0,0-.01c-.01.02-.03.05-.04.07,0,0,0,0,0,0,0,0,0,0,0,0,.01-.02.02-.04.04-.06Z"/>
  <path class="cls-5" d="M7.5,15.82s-.01.03-.02.04c0-.01,0-.02.01-.03,0,0,0,0,0-.01Z"/>
  <path class="cls-5" d="M7.26,16.54s.01-.06.02-.09c0,0,0-.02,0-.02,0,0,0-.01,0-.02-.02.09-.04.17-.05.26,0-.01,0-.03,0-.04,0-.01,0-.03,0-.04,0-.02,0-.03,0-.04Z"/>
  <path class="cls-5" d="M7.31,16.34s0,0,0,0c0,.02,0,.03-.01.05,0,0,0-.02,0-.02,0,0,0-.01,0-.02Z"/>
  <path class="cls-5" d="M10.43,13.95s-.01,0-.02,0h.04s-.02,0-.02,0Z"/>
  <polygon class="cls-5" points="12.56 19.59 12.56 19.59 12.56 19.59 12.56 19.59 12.56 19.59"/>
  <path class="cls-2" d="M31.09,12.55c.11.11.19.25.23.4.01.04.02.09.03.14,1.98-2.21,3.5-5.36,3.77-6.84.34-1.85-.34-3.27-1.91-4.09.05.18.05.37-.02.56-.08.23-.25.41-.45.52,1.06.58,1.46,1.5,1.22,2.79-.2,1.12-1.55,4.09-3.47,6.24.05,0,.09.01.14.02.17.04.32.12.45.25Z"/>
  <path class="cls-2" d="M22.83,10.36s.09-.02.14-.03c.18-.02.36,0,.51.08-.61-2.82-.3-6.06.07-7.14.44-1.26,1.23-1.85,2.44-1.82-.12-.19-.18-.43-.13-.68.04-.2.13-.37.26-.5-1.77-.07-3.06.84-3.68,2.61-.5,1.42-.73,4.91-.11,7.81.06-.08.13-.15.21-.2.05-.04.11-.06.17-.09.04-.02.07-.03.11-.04Z"/>
  <path class="cls-5" d="M31.35,13.08h0s-.02-.09-.03-.14c-.04-.14-.12-.28-.23-.4-.13-.13-.29-.21-.45-.25-.05-.01-.09-.02-.14-.02-.03,0-.05,0-.08,0-.24,0-.48.09-.66.27-.88.87-2.2,1.84-3.48,1.5-1.28-.34-1.95-1.84-2.28-3.03-.08-.28-.27-.49-.51-.6-.12-.06-.26-.09-.4-.09-.04,0-.08,0-.12,0-.04,0-.09.01-.14.03-.04.01-.07.03-.11.04-.06.02-.12.05-.17.09-.08.06-.15.13-.21.2-.17.23-.24.53-.16.83.55,1.95,1.4,3.07,2.26,3.69.2.14.39.26.58.36.02,0,.03.01.05.02l-2.07,7.91c-.61,2.35-2.74,3.99-5.16,3.99s-4.7-1.78-5.22-4.23l-.69-3.23c.22-.12.43-.26.63-.44h0s0,0,0,0c0,0,0,0,0,0,.03-.02.05-.05.08-.07,0,0,.02-.02.03-.02l.02-.02s.06-.06.08-.08c.01-.01.03-.03.04-.04.04-.04.08-.09.12-.14.12-.15.22-.31.32-.47.04-.06.07-.13.1-.19h0s.02-.03.02-.05c0-.01.01-.03.02-.04.11-.26.19-.54.23-.82.01-.09.02-.19.03-.28,0-.07,0-.14,0-.21,0-.26-.04-.52-.1-.77-.02-.1-.06-.2-.09-.3-.09-.24-.2-.48-.35-.7-.09-.13-.19-.26-.3-.38-.1-.11-.21-.22-.33-.31,0,0-.02-.02-.03-.02-.07-.05-.14-.1-.21-.15,0,0-.02-.01-.02-.02,0,0,0,0,0,0-.07-.05-.14-.09-.21-.13-.01,0-.03-.02-.04-.02-.07-.04-.14-.08-.22-.11,0,0-.02,0-.03-.01-.07-.03-.15-.06-.22-.09,0,0-.01,0-.02,0-.08-.03-.15-.05-.23-.07-.01,0-.03,0-.04-.01-.08-.02-.15-.04-.23-.05,0,0-.01,0-.02,0,0,0-.02,0-.02,0-.08-.01-.16-.02-.24-.03h0s0,0-.01,0c-.08,0-.16,0-.23,0h-.04s-.08,0-.12,0c0,0-.02,0-.03,0,0,0-.01,0-.02,0-.06,0-.11,0-.16.01,0,0-.02,0-.02,0,0,0-.01,0-.02,0-.04,0-.08.01-.12.02-.02,0-.04,0-.06.01-.03,0-.07.01-.1.02-.02,0-.04.01-.07.02-.03,0-.06.02-.1.02-.01,0-.02,0-.04.01-.01,0-.02,0-.03,0-.03,0-.06.02-.09.03-.02,0-.04.01-.07.02-.03.01-.06.02-.09.03-.02,0-.04.02-.06.02-.03.01-.07.03-.1.04-.01,0-.02,0-.03.01,0,0-.01,0-.02,0-.05.02-.1.05-.15.08,0,0-.01,0-.02.01,0,0,0,0-.01,0-.04.02-.08.04-.11.07,0,0-.02.01-.03.02,0,0-.02,0-.02.02-.03.02-.06.04-.09.06,0,0-.02.01-.03.02-.01,0-.02.02-.03.02-.03.02-.06.04-.08.06-.01,0-.02.02-.03.03,0,0-.02.01-.02.02-.03.02-.05.04-.08.06,0,0-.02.02-.03.02,0,0-.02.01-.03.02-.03.02-.05.05-.08.07-.02.02-.03.03-.05.05-.03.03-.05.06-.08.08-.01.02-.03.03-.04.04-.04.04-.08.09-.11.13h0s0,0,0,0c-.1.12-.18.24-.25.37,0,0,0,0,0,.01-.01.02-.03.04-.04.06,0,0,0,0,0,0,0,.02-.02.03-.03.05,0,.01-.02.03-.02.04,0,0,0,.01,0,.02,0,.01-.01.03-.02.04,0,0,0,0,0,.01,0,0,0,.01,0,.02,0,0,0,.02-.01.03,0,0,0,0,0,.02,0,0,0,0,0,0,0,0,0,0,0,.01,0,0,0,.02-.01.03,0,0,0,0,0,0,0,0,0,.01,0,.02,0,0,0,.02-.01.02,0,0,0,0,0,.01h0s0,.01,0,.02c0,.01,0,.02-.01.04,0,.02-.01.04-.02.05,0,0,0,.01,0,.02,0,.01,0,.02-.01.03,0,0,0,0,0,0t0,0s-.01.03-.02.05c0,0,0,.01,0,.02,0,0,0,.01,0,.02,0,0,0,0,0,0,0,0,0,0,0,0h0s0,0,0,0,0,0,0,0c0,.02-.01.04-.02.06,0,.01,0,.02,0,.03,0,0,0,0,0,.01,0,0,0,0,0,0s0,0,0,0c0,0,0,0,0,0,0,0,0,0,0,0,0,0,0,.01,0,.02,0,0,0,0,0,0,0,.02,0,.03-.01.05,0,0,0,.01,0,.02,0,0,0,.02,0,.02,0,.03-.01.06-.02.09,0,.01,0,.03,0,.04,0,.01,0,.02,0,.04,0,0,0,0,0,0h0s-.01.06-.01.09c0,.04-.01.08-.01.11,0,.02,0,.04,0,.07,0,.03,0,.06,0,.09,0,.07,0,.14,0,.22,0,.49.12.98.35,1.42.11.22.24.42.4.61.13.16.28.31.45.44.07.05.14.1.21.15.01,0,.02.02.03.02.07.05.14.09.21.13,0,0,.01,0,.02,0,0,0,.02,0,.02.01.07.04.14.08.22.11,0,0,0,0,0,0,0,0,.01,0,.02,0,.06.03.12.05.19.08.25.09.5.15.76.18l.7,3.27c.7,3.31,3.68,5.72,7.06,5.72s6.15-2.22,6.98-5.39l2.09-7.98c.24,0,.49-.03.75-.09.98-.2,2.14-.77,3.42-2.03.22-.22.31-.51.27-.8ZM10.67,19.49c-.62.07-1.23-.11-1.71-.51-.13-.1-.24-.22-.34-.34-.69-.85-.69-2.08,0-2.94.39-.48.95-.79,1.57-.85.62-.07,1.23.11,1.71.51.13.1.24.22.34.34.69.85.69,2.08,0,2.94-.39.48-.95.79-1.57.85Z"/>
  <path class="cls-6" d="M12.23,15.7c-.1-.12-.22-.24-.34-.34-.48-.39-1.09-.57-1.71-.51-.62.07-1.18.37-1.57.85-.69.85-.69,2.09,0,2.94.1.12.22.24.34.34.48.39,1.09.57,1.71.51.62-.07,1.18-.37,1.57-.85.69-.85.69-2.09,0-2.94ZM12.05,17.2s0,.02,0,.03h0s0,.02,0,.03c0,0,0,.01,0,.02,0,.02,0,.04,0,.06h0s0,.03,0,.04c0,0,0,0,0,0,0,.02,0,.03,0,.05,0,.01,0,.02,0,.04,0,.03-.01.07-.02.1,0,0,0,.02,0,.03,0,0,0,.01,0,.02,0,.03-.02.06-.03.09h0s-.01.04-.02.06c0,.02-.01.03-.02.05,0,0,0,.01,0,.02,0,.02-.02.04-.03.05,0,.01-.01.02-.02.03h0s0,0,0,0h0s0,0,0,0c0,0,0,0,0,.01,0,0,0,.01-.01.02-.02.03-.04.07-.06.1,0,0,0,.01-.01.02,0,0,0,.01-.02.02-.02.03-.04.06-.06.09-.27.34-.66.55-1.09.59s-.86-.08-1.19-.35c-.09-.07-.17-.15-.24-.24-.03-.03-.05-.06-.07-.1-.05-.07-.09-.14-.12-.21-.02-.03-.03-.06-.04-.09-.01-.03-.02-.06-.03-.08,0-.02-.02-.04-.02-.06-.01-.03-.02-.07-.03-.1,0-.04-.02-.08-.02-.12,0-.04-.01-.08-.01-.12,0-.05,0-.09,0-.14,0-.03,0-.05,0-.08,0-.15.04-.3.08-.45.05-.14.12-.28.21-.41.02-.03.04-.06.06-.09.27-.34.66-.55,1.09-.6.43-.05.85.08,1.19.35.09.07.17.15.24.24.09.11.16.23.22.36.08.17.12.35.14.53,0,.05,0,.09,0,.14v.03Z"/>
  <path class="cls-5" d="M9.4,18.44c.34.27.76.4,1.19.35s.82-.26,1.09-.59c.03-.03.05-.07.08-.11,0,0,0-.01.01-.02.02-.03.04-.07.06-.1,0,0,0-.01.01-.02.02-.04.04-.07.05-.11,0,0,0-.01,0-.02.03-.07.06-.15.08-.23,0,0,0-.02,0-.03,0-.03.02-.07.02-.1,0-.01,0-.02,0-.04,0-.03,0-.06.01-.09,0-.02,0-.04,0-.06,0-.03,0-.07,0-.1,0,0,0,0,0,0,0-.05,0-.09,0-.14-.02-.18-.06-.36-.14-.53-.06-.13-.13-.25-.22-.36-.07-.09-.15-.17-.24-.24-.34-.27-.76-.4-1.19-.35-.43.05-.82.26-1.09.6-.02.03-.04.06-.06.09-.18.26-.28.55-.29.86,0,.03,0,.05,0,.08,0,.05,0,.09,0,.14.03.32.15.62.36.88.07.09.15.17.24.24Z"/>
</svg>