<?xml version="1.0" encoding="UTF-8"?>
<svg id="Layer_1" data-name="Layer 1" xmlns="http://www.w3.org/2000/svg" viewBox="0 0 31.64 26.55">
  <defs>
    <style>
      .cls-1 {
        fill: none;
      }

      .cls-1, .cls-2, .cls-3, .cls-4, .cls-5 {
        stroke-width: 0px;
      }

      .cls-2 {
        fill: #181814;
      }

      .cls-3 {
        fill: #747274;
      }

      .cls-4 {
        fill: #c1373c;
      }

      .cls-5 {
        fill: #fff;
      }
    </style>
  </defs>
  <path class="cls-1" d="M16.88,4.13c.37,0,.78.04,1.2.14.02-.1.04-.2.04-.31,0-.68-.55-1.24-1.24-1.24s-1.24.55-1.24,1.24c0,.11.01.21.04.31.42-.11.82-.14,1.2-.14Z"/>
  <path class="cls-5" d="M8.78,17.37c-.66,1.73-1.53,2.69-1.7,2.88-.43.39-.72.88-.88,1.41H1.42l3.52-3.07,2.46-2.15.99.73c.12.09.25.15.38.19Z"/>
  <polygon class="cls-5" points="6.82 16.01 .82 21.24 .82 11.58 6.82 16.01"/>
  <path class="cls-3" d="M.15,10.41s-.02.02-.02.02v-.02h.02Z"/>
  <path class="cls-3" d="M.47,10.29c-.12,0-.24.05-.32.13,0,0-.02.02-.02.02-.08.08-.13.2-.13.32v11.25c0,.26.21.47.47.47h5.6c0-.28.05-.56.13-.82H1.42l3.52-3.07,2.46-2.15.99.73c.12.09.25.15.38.19.07-.17.13-.35.19-.54.13-.4.25-.84.35-1.31.14-.69.27-1.39.4-2.07l.03-.15c.14-.75.28-1.49.42-2.2.06-.28.12-.55.18-.82H.47ZM.82,21.24v-9.66l5.99,4.43L.82,21.24Z"/>
  <path class="cls-3" d="M25.5,12.55h-1.62c.05.25.09.5.14.76l.03.15c.06.32.12.65.18.98h1.27v-1.88Z"/>
  <path class="cls-3" d="M25.5,16.59h-.78c.23.74.5,1.37.77,1.89h.01v-1.89Z"/>
  <g>
    <path class="cls-3" d="M29.49.8v2.78h-1.6V.8c0-.44.36-.8.8-.8s.8.36.8.8Z"/>
    <path class="cls-5" d="M30.22,5.53v4.79s-.03.06-.06.06h-6.72c-.11-.5-.24-.99-.38-1.46v-3.39s.03-.06.06-.06h7.04s.06.03.06.06Z"/>
    <rect class="cls-3" x="27.71" y="12.55" width="2.23" height="1.88"/>
    <path class="cls-2" d="M31.58,3.58h-9.87s-.06.03-.06.06v2.12c.32.47.61.99.86,1.58.21.5.39,1.02.55,1.58v-3.39s.03-.06.06-.06h7.04s.06.03.06.06v4.79s-.03.06-.06.06h-6.72c.12.52.23,1.05.33,1.6.04.19.07.38.11.57h1.62v1.88h-1.27c.04.19.07.38.11.57.03.17.07.34.1.52.04.17.08.34.12.51.05.2.1.39.16.57h.78v1.89h-.01c.11.21.22.4.32.57.43.71.8,1.11.88,1.19.38.35.66.78.83,1.25h4.06s.06-.03.06-.06V3.64s-.03-.06-.06-.06ZM29.94,14.43h-2.23v-1.88h2.23v1.88ZM29.94,18.48h-2.23v-1.89h2.23v1.89Z"/>
    <rect class="cls-3" x="27.71" y="16.59" width="2.23" height="1.89"/>
  </g>
  <path class="cls-4" d="M26.04,20.92c-.13-.13-1.82-1.9-2.51-5.21-.15-.75-.29-1.5-.43-2.23-.4-2.15-.78-4.17-1.45-5.76-.67-1.58-1.56-2.49-2.47-3,.08-.23.12-.48.12-.74,0-1.33-1.08-2.41-2.41-2.41s-2.41,1.08-2.41,2.41c0,.26.04.51.12.74-.91.51-1.8,1.42-2.47,3-.68,1.59-1.05,3.62-1.45,5.76-.14.73-.28,1.48-.43,2.23-.68,3.31-2.38,5.07-2.51,5.21-.69.62-.9,1.58-.57,2.45.33.87,1.18,1.43,2.11,1.43h5.02c.41,1.03,1.41,1.76,2.59,1.76s2.18-.73,2.59-1.76h5.02c.93,0,1.78-.56,2.11-1.43.33-.86.11-1.83-.57-2.45ZM18.08,4.28c-.42-.11-.82-.14-1.2-.14s-.78.04-1.2.14c-.03-.1-.04-.2-.04-.31,0-.68.55-1.24,1.24-1.24s1.24.55,1.24,1.24c0,.11-.02.21-.04.31Z"/>
</svg>